<svg width="40" height="27" viewBox="0 0 40 27" fill="none" xmlns="http://www.w3.org/2000/svg">
<g filter="url(#filter0_f_2195_919)">
<path d="M19.9654 11.8711C18.933 11.8711 18.0929 12.7112 18.0929 13.7436C18.0929 14.776 18.933 15.6161 19.9654 15.6161C20.9978 15.6161 21.8379 14.776 21.8379 13.7436C21.8379 12.7112 20.9978 11.8711 19.9654 11.8711Z" fill="#6FDBFF"/>
<path d="M13.7252 11.8711C12.6928 11.8711 11.8527 12.7112 11.8527 13.7436C11.8527 14.776 12.6928 15.6161 13.7252 15.6161C14.7575 15.6161 15.5977 14.776 15.5977 13.7436C15.5977 12.7112 14.7575 11.8711 13.7252 11.8711Z" fill="#6FDBFF"/>
<path d="M26.2095 11.8711C25.1772 11.8711 24.337 12.7112 24.337 13.7436C24.337 14.776 25.1772 15.6161 26.2095 15.6161C27.2419 15.6161 28.082 14.776 28.082 13.7436C28.082 12.7112 27.2419 11.8711 26.2095 11.8711Z" fill="#6FDBFF"/>
</g>
<path d="M19.9654 9.87109C18.933 9.87109 18.0929 10.7112 18.0929 11.7436C18.0929 12.776 18.933 13.6161 19.9654 13.6161C20.9978 13.6161 21.8379 12.776 21.8379 11.7436C21.8379 10.7112 20.9978 9.87109 19.9654 9.87109Z" fill="white"/>
<path d="M13.7252 9.87109C12.6928 9.87109 11.8527 10.7112 11.8527 11.7436C11.8527 12.776 12.6928 13.6161 13.7252 13.6161C14.7575 13.6161 15.5977 12.776 15.5977 11.7436C15.5977 10.7112 14.7575 9.87109 13.7252 9.87109Z" fill="white"/>
<path d="M26.2095 9.87109C25.1772 9.87109 24.337 10.7112 24.337 11.7436C24.337 12.776 25.1772 13.6161 26.2095 13.6161C27.2419 13.6161 28.082 12.776 28.082 11.7436C28.082 10.7112 27.2419 9.87109 26.2095 9.87109Z" fill="white"/>
<defs>
<filter id="filter0_f_2195_919" x="-1.01953" y="-7.24219" width="41.9727" height="41.9727" filterUnits="userSpaceOnUse" color-interpolation-filters="sRGB">
<feFlood flood-opacity="0" result="BackgroundImageFix"/>
<feBlend mode="normal" in="SourceGraphic" in2="BackgroundImageFix" result="shape"/>
<feGaussianBlur stdDeviation="5.5" result="effect1_foregroundBlur_2195_919"/>
</filter>
</defs>
</svg>
