<svg width="38" height="37" viewBox="0 0 38 37" fill="none" xmlns="http://www.w3.org/2000/svg">
<g opacity="0.5" clip-path="url(#clip0_2195_932)" filter="url(#filter0_f_2195_932)">
<path d="M18.8738 16.5249C20.2646 16.5249 21.3921 15.3975 21.3921 14.0066C21.3921 12.6158 20.2646 11.4883 18.8738 11.4883C17.483 11.4883 16.3555 12.6158 16.3555 14.0066C16.3555 15.3975 17.483 16.5249 18.8738 16.5249Z" fill="#6FDBFF"/>
<path d="M13.9695 25.0249C15.3603 25.0249 16.4878 23.8975 16.4878 22.5066C16.4878 21.1158 15.3603 19.9883 13.9695 19.9883C12.5787 19.9883 11.4512 21.1158 11.4512 22.5066C11.4512 23.8975 12.5787 25.0249 13.9695 25.0249Z" fill="#6FDBFF"/>
<path d="M13.1718 19.6707C13.1951 19.6732 13.2185 19.6745 13.242 19.6745C13.3968 19.6743 13.5461 19.617 13.6614 19.5136C13.7767 19.4103 13.8499 19.268 13.8669 19.1141C13.9381 18.4611 14.1373 17.8284 14.4531 17.2523C14.769 16.6763 15.1952 16.1681 15.7074 15.7568C15.834 15.6507 15.9139 15.4992 15.9298 15.3349C15.9457 15.1705 15.8965 15.0065 15.7926 14.8781C15.6887 14.7497 15.5386 14.6673 15.3745 14.6486C15.2105 14.6299 15.0456 14.6763 14.9155 14.778C14.2752 15.2923 13.7425 15.9278 13.3478 16.648C12.9531 17.3682 12.7041 18.1592 12.6151 18.9756C12.5969 19.1416 12.6453 19.308 12.7497 19.4384C12.854 19.5687 13.0059 19.6523 13.1718 19.6707Z" fill="#6FDBFF"/>
<path d="M20.5532 24.4226C19.466 24.8026 18.2821 24.8026 17.195 24.4226C17.0374 24.367 16.8643 24.3763 16.7136 24.4483C16.5629 24.5204 16.447 24.6494 16.3914 24.8069C16.3358 24.9644 16.345 25.1376 16.4171 25.2883C16.4892 25.439 16.6181 25.5549 16.7757 25.6105C18.1339 26.0876 19.6142 26.0876 20.9725 25.6105C21.13 25.5549 21.2589 25.439 21.331 25.2883C21.4031 25.1376 21.4123 24.9644 21.3567 24.8069C21.3011 24.6494 21.1852 24.5204 21.0345 24.4483C20.8838 24.3763 20.7107 24.367 20.5532 24.4226Z" fill="#6FDBFF"/>
<path d="M23.8784 19.1126C23.8955 19.2665 23.9686 19.4088 24.0839 19.5121C24.1992 19.6155 24.3485 19.6728 24.5034 19.673C24.5268 19.673 24.5502 19.6717 24.5735 19.6693C24.6557 19.6602 24.7354 19.6351 24.8079 19.5952C24.8804 19.5554 24.9444 19.5017 24.9961 19.4371C25.0478 19.3726 25.0863 19.2985 25.1094 19.219C25.1325 19.1396 25.1397 19.0564 25.1306 18.9741C24.9596 17.4346 24.226 16.0125 23.0706 14.9809C22.9459 14.8713 22.783 14.8154 22.6173 14.8253C22.4517 14.8353 22.2966 14.9102 22.1859 15.0339C22.0752 15.1575 22.0178 15.3199 22.0262 15.4856C22.0346 15.6514 22.1081 15.8071 22.2307 15.9189C23.1551 16.7438 23.7419 17.8813 23.8784 19.1126Z" fill="#6FDBFF"/>
<path d="M23.7781 25.0249C25.1689 25.0249 26.2964 23.8975 26.2964 22.5066C26.2964 21.1158 25.1689 19.9883 23.7781 19.9883C22.3873 19.9883 21.2598 21.1158 21.2598 22.5066C21.2598 23.8975 22.3873 25.0249 23.7781 25.0249Z" fill="#6FDBFF"/>
</g>
<g clip-path="url(#clip1_2195_932)">
<path d="M18.8738 13.6304C20.2646 13.6304 21.3921 12.5029 21.3921 11.1121C21.3921 9.72125 20.2646 8.59375 18.8738 8.59375C17.483 8.59375 16.3555 9.72125 16.3555 11.1121C16.3555 12.5029 17.483 13.6304 18.8738 13.6304Z" fill="white"/>
<path d="M13.9695 22.1304C15.3603 22.1304 16.4878 21.0029 16.4878 19.6121C16.4878 18.2212 15.3603 17.0938 13.9695 17.0938C12.5787 17.0938 11.4512 18.2212 11.4512 19.6121C11.4512 21.0029 12.5787 22.1304 13.9695 22.1304Z" fill="white"/>
<path d="M13.1718 16.7762C13.1951 16.7787 13.2185 16.7799 13.242 16.7799C13.3968 16.7797 13.5461 16.7225 13.6614 16.6191C13.7767 16.5157 13.8499 16.3735 13.8669 16.2196C13.9381 15.5665 14.1373 14.9339 14.4531 14.3578C14.769 13.7817 15.1952 13.2735 15.7074 12.8622C15.834 12.7562 15.9139 12.6047 15.9298 12.4403C15.9457 12.276 15.8965 12.112 15.7926 11.9836C15.6887 11.8552 15.5386 11.7728 15.3745 11.7541C15.2105 11.7353 15.0456 11.7818 14.9155 11.8835C14.2752 12.3978 13.7425 13.0332 13.3478 13.7535C12.9531 14.4737 12.7041 15.2646 12.6151 16.0811C12.5969 16.2471 12.6453 16.4135 12.7497 16.5438C12.854 16.6742 13.0059 16.7577 13.1718 16.7762Z" fill="white"/>
<path d="M20.5532 21.5281C19.466 21.9081 18.2821 21.9081 17.195 21.5281C17.0374 21.4725 16.8643 21.4817 16.7136 21.5538C16.5629 21.6259 16.447 21.7549 16.3914 21.9124C16.3358 22.0699 16.345 22.243 16.4171 22.3937C16.4892 22.5444 16.6181 22.6603 16.7757 22.7159C18.1339 23.1931 19.6142 23.1931 20.9725 22.7159C21.13 22.6603 21.2589 22.5444 21.331 22.3937C21.4031 22.243 21.4123 22.0699 21.3567 21.9124C21.3011 21.7549 21.1852 21.6259 21.0345 21.5538C20.8838 21.4817 20.7107 21.4725 20.5532 21.5281Z" fill="white"/>
<path d="M23.8784 16.2181C23.8955 16.372 23.9686 16.5142 24.0839 16.6176C24.1992 16.721 24.3485 16.7782 24.5034 16.7784C24.5268 16.7784 24.5502 16.7772 24.5735 16.7747C24.6557 16.7657 24.7354 16.7405 24.8079 16.7007C24.8804 16.6609 24.9444 16.6072 24.9961 16.5426C25.0478 16.478 25.0863 16.4039 25.1094 16.3245C25.1325 16.245 25.1397 16.1618 25.1306 16.0796C24.9596 14.5401 24.226 13.118 23.0706 12.0863C22.9459 11.9768 22.783 11.9209 22.6173 11.9308C22.4517 11.9407 22.2966 12.0157 22.1859 12.1393C22.0752 12.263 22.0178 12.4253 22.0262 12.5911C22.0346 12.7568 22.1081 12.9126 22.2307 13.0244C23.1551 13.8493 23.7419 14.9867 23.8784 16.2181Z" fill="white"/>
<path d="M23.7781 22.1304C25.1689 22.1304 26.2964 21.0029 26.2964 19.6121C26.2964 18.2212 25.1689 17.0938 23.7781 17.0938C22.3873 17.0938 21.2598 18.2212 21.2598 19.6121C21.2598 21.0029 22.3873 22.1304 23.7781 22.1304Z" fill="white"/>
</g>
<defs>
<filter id="filter0_f_2195_932" x="0.318359" y="0.488281" width="37.1094" height="37.1094" filterUnits="userSpaceOnUse" color-interpolation-filters="sRGB">
<feFlood flood-opacity="0" result="BackgroundImageFix"/>
<feBlend mode="normal" in="SourceGraphic" in2="BackgroundImageFix" result="shape"/>
<feGaussianBlur stdDeviation="5.5" result="effect1_foregroundBlur_2195_932"/>
</filter>
<clipPath id="clip0_2195_932">
<rect width="15.11" height="15.11" fill="white" transform="translate(11.3184 11.4883)"/>
</clipPath>
<clipPath id="clip1_2195_932">
<rect width="15.11" height="15.11" fill="white" transform="translate(11.3184 8.59375)"/>
</clipPath>
</defs>
</svg>
