<svg width="814" height="275" viewBox="0 0 814 275" fill="none" xmlns="http://www.w3.org/2000/svg">
<path opacity="0.2" d="M675.919 0.525391L1229.82 311.526H-415.312L-413.289 310.393L138.73 0.449219H675.777L675.919 0.525391ZM-410.671 310.311H-310.635L-199.487 238.991H-283.646L-410.671 310.311ZM-308.382 310.311H-208.136L-112.869 238.991H-197.237L-308.382 310.311ZM-206.112 310.311H-105.627L-26.2383 238.991H-110.843L-206.112 310.311ZM-103.808 310.311H-3.13965L60.373 238.991H-24.417L-103.808 310.311ZM-1.51465 310.311H99.3428L146.976 238.991H61.9971L-1.51465 310.311ZM100.801 310.311H201.798L233.554 238.991H148.436L100.801 310.311ZM203.126 310.311H304.237L320.115 238.991H234.882L203.126 310.311ZM305.479 310.311H406.646V238.991H321.357L305.479 310.311ZM407.862 310.311H509.028L493.149 238.991H407.862V310.311ZM510.27 310.311H611.382L579.626 238.991H494.392L510.27 310.311ZM612.71 310.311H713.706L666.072 238.991H580.954L612.71 310.311ZM715.163 310.311H816.02L752.508 238.991H667.53L715.163 310.311ZM817.645 310.311H918.315L838.925 238.991H754.132L817.645 310.311ZM920.135 310.311H1020.62L925.351 238.991H840.746L920.135 310.311ZM1125.14 310.311H1225.17L1098.15 238.991H1014L1125.14 310.311ZM1022.64 310.311H1122.89L1011.75 238.991H927.376L1022.64 310.311ZM-281.48 237.775H-197.593L-117.205 186.193H-189.609L-281.48 237.775ZM-195.342 237.775H-111.245L-42.3418 186.193H-114.956L-195.342 237.775ZM-109.219 237.775H-24.8848L32.5342 186.193H-40.3145L-109.219 237.775ZM-23.0645 237.775H61.4561L107.392 186.193H34.3555L-23.0645 237.775ZM63.0791 237.775H147.787L182.238 186.193H109.015L63.0791 237.775ZM149.247 237.775H234.095L257.062 186.193H183.699L149.247 237.775ZM235.424 237.775H320.386L331.87 186.193H258.391L235.424 237.775ZM321.628 237.775H406.646V186.193H333.112L321.628 237.775ZM407.862 237.775H492.879L481.396 186.193H407.862V237.775ZM494.121 237.775H579.084L556.117 186.193H482.638L494.121 237.775ZM580.413 237.775H665.261L630.81 186.193H557.445L580.413 237.775ZM666.719 237.775H751.426L705.49 186.193H632.268L666.719 237.775ZM753.049 237.775H837.572L780.152 186.193H707.113L753.049 237.775ZM839.393 237.775H923.727L854.823 186.193H781.974L839.393 237.775ZM1012.1 237.775H1095.98L1004.11 186.193H931.713L1012.1 237.775ZM925.752 237.775H1009.85L929.464 186.193H856.849L925.752 237.775ZM-187.442 184.977H-115.309L-54.6406 146.048H-118.107L-187.442 184.977ZM-113.06 184.977H-40.7168L11.2832 146.048H-52.3926L-113.06 184.977ZM-38.6885 184.977H33.8887L77.2217 146.048H13.3135L-38.6885 184.977ZM35.71 184.977H108.476L143.144 146.048H79.043L35.71 184.977ZM110.099 184.977H183.051L209.051 146.048H144.766L110.099 184.977ZM184.513 184.977H257.604L274.938 146.048H210.513L184.513 184.977ZM258.933 184.977H332.141L340.808 146.048H276.267L258.933 184.977ZM333.383 184.977H406.646V146.048H342.05L333.383 184.977ZM407.862 184.977H481.124L472.457 146.048H407.862V184.977ZM482.366 184.977H555.575L538.241 146.048H473.7L482.366 184.977ZM556.903 184.977H629.996L603.996 146.048H539.57L556.903 184.977ZM631.455 184.977H704.407L669.74 146.048H605.455L631.455 184.977ZM706.029 184.977H778.798L735.465 146.048H671.361L706.029 184.977ZM780.619 184.977H853.197L801.196 146.048H737.285L780.619 184.977ZM929.816 184.977H1001.95L932.613 146.048H869.148L929.816 184.977ZM855.224 184.977H927.567L866.9 146.048H803.224L855.224 184.977ZM-115.942 144.832H-52.7461L-5.45312 114.485H-61.8926L-115.942 144.832ZM-50.4971 144.832H12.9072L53.4443 114.485H-3.20508L-50.4971 144.832ZM14.9375 144.832H78.5752L112.355 114.485H55.4756L14.9375 144.832ZM80.3965 144.832H144.226L171.251 114.485H114.178L80.3965 144.832ZM145.848 144.832H209.862L230.131 114.485H172.872L145.848 144.832ZM211.325 144.832H275.479L288.991 114.485H231.594L211.325 144.832ZM276.808 144.832H341.078L347.834 114.485H290.319L276.808 144.832ZM342.32 144.832H406.646V114.485H349.077L342.32 144.832ZM407.862 144.832H472.187L465.431 114.485H407.862V144.832ZM473.43 144.832H537.7L524.188 114.485H466.673L473.43 144.832ZM539.028 144.832H603.185L582.916 114.485H525.517L539.028 144.832ZM604.644 144.832H668.657L641.633 114.485H584.375L604.644 144.832ZM670.279 144.832H734.111L700.33 114.485H643.254L670.279 144.832ZM735.932 144.832H799.572L759.035 114.485H702.151L735.932 144.832ZM867.254 144.832H930.447L876.398 114.485H819.961L867.254 144.832ZM801.6 144.832H865.006L817.713 114.485H761.062L801.6 144.832ZM-59.7275 113.27H-3.55762L34.2314 89.0215H-16.54L-59.7275 113.27ZM-1.30957 113.27H55.0684L87.459 89.0215H36.4785L-1.30957 113.27ZM57.0996 113.27H113.709L140.701 89.0215H89.4902L57.0996 113.27ZM115.531 113.27H172.333L193.928 89.0215H142.522L115.531 113.27ZM173.955 113.27H230.942L247.138 89.0215H195.549L173.955 113.27ZM232.406 113.27H289.533L300.33 89.0215H248.602L232.406 113.27ZM290.861 113.27H348.104L353.503 89.0215H301.658L290.861 113.27ZM349.348 113.27H406.646V89.0215H354.746L349.348 113.27ZM407.862 113.27H465.16L459.762 89.0215H407.862V113.27ZM466.402 113.27H523.646L512.85 89.0215H461.004L466.402 113.27ZM524.975 113.27H582.104L565.909 89.0215H514.178L524.975 113.27ZM583.563 113.27H640.55L618.957 89.0215H567.368L583.563 113.27ZM642.172 113.27H698.977L671.985 89.0215H620.577L642.172 113.27ZM700.798 113.27H757.411L725.021 89.0215H673.806L700.798 113.27ZM818.065 113.27H874.232L831.046 89.0215H780.276L818.065 113.27ZM759.438 113.27H815.818L778.03 89.0215H727.048L759.438 113.27ZM-14.373 87.8047H36.1279L66.9082 68.0537H20.8047L-14.373 87.8047ZM38.375 87.8047H89.084L115.467 68.0537H69.1553L38.375 87.8047ZM91.1152 87.8047H142.056L164.041 68.0537H117.5L91.1152 87.8047ZM143.877 87.8047H195.011L212.6 68.0537H165.863L143.877 87.8047ZM196.633 87.8047H247.95L261.142 68.0537H214.221L196.633 87.8047ZM249.414 87.8047H300.871L309.666 68.0537H262.606L249.414 87.8047ZM302.2 87.8047H353.774L358.172 68.0537H310.994L302.2 87.8047ZM355.017 87.8047H406.646V68.0537H359.414L355.017 87.8047ZM407.862 87.8047H459.49L455.094 68.0537H407.862V87.8047ZM460.733 87.8047H512.308L503.514 68.0537H456.336L460.733 87.8047ZM513.637 87.8047H565.096L551.904 68.0537H504.842L513.637 87.8047ZM566.556 87.8047H617.873L600.284 68.0537H553.364L566.556 87.8047ZM619.494 87.8047H670.631L648.645 68.0537H601.905L619.494 87.8047ZM672.451 87.8047H723.395L697.011 68.0537H650.466L672.451 87.8047ZM778.38 87.8047H828.879L793.701 68.0537H747.6L778.38 87.8047ZM725.423 87.8047H776.134L745.354 68.0537H699.04L725.423 87.8047ZM22.9707 66.8379H68.8027L94.3076 50.4727H52.1182L22.9707 66.8379ZM71.0498 66.8379H117.091L138.951 50.4727H96.5537L71.0498 66.8379ZM119.124 66.8379H165.395L183.611 50.4727H140.984L119.124 66.8379ZM167.217 66.8379H213.683L228.257 50.4727H185.434L167.217 66.8379ZM215.304 66.8379H261.953L272.884 50.4727H229.878L215.304 66.8379ZM263.418 66.8379H310.207L317.494 50.4727H274.349L263.418 66.8379ZM311.535 66.8379H358.442L362.086 50.4727H318.822L311.535 66.8379ZM359.685 66.8379H406.646V50.4727H363.328L359.685 66.8379ZM407.862 66.8379H454.822L451.179 50.4727H407.862V66.8379ZM456.065 66.8379H502.973L495.686 50.4727H452.422L456.065 66.8379ZM504.301 66.8379H551.093L540.162 50.4727H497.014L504.301 66.8379ZM552.553 66.8379H599.202L584.628 50.4727H541.622L552.553 66.8379ZM600.822 66.8379H647.291L629.074 50.4727H586.248L600.822 66.8379ZM649.112 66.8379H695.387L673.526 50.4727H630.896L649.112 66.8379ZM745.705 66.8379H791.536L762.389 50.4727H720.2L745.705 66.8379ZM697.416 66.8379H743.459L717.955 50.4727H675.556L697.416 66.8379ZM54.2861 49.2559H96.2031L117.591 35.5322H78.7285L54.2861 49.2559ZM98.4502 49.2559H140.577L158.909 35.5322H119.837L98.4502 49.2559ZM142.61 49.2559H184.966L200.243 35.5322H160.942L142.61 49.2559ZM186.788 49.2559H229.34L241.562 35.5322H202.064L186.788 49.2559ZM230.961 49.2559H273.696L282.861 35.5322H243.183L230.961 49.2559ZM275.161 49.2559H318.036L324.146 35.5322H284.327L275.161 49.2559ZM319.364 49.2559H362.356L365.412 35.5322H325.475L319.364 49.2559ZM363.6 49.2559H406.646V35.5322H366.655L363.6 49.2559ZM407.862 49.2559H450.908L447.853 35.5322H407.862V49.2559ZM452.151 49.2559H495.144L489.033 35.5322H449.096L452.151 49.2559ZM496.472 49.2559H539.35L530.184 35.5322H490.361L496.472 49.2559ZM540.81 49.2559H583.545L571.323 35.5322H531.645L540.81 49.2559ZM585.165 49.2559H627.72L612.443 35.5322H572.943L585.165 49.2559ZM629.541 49.2559H671.9L653.568 35.5322H614.265L629.541 49.2559ZM718.305 49.2559H760.222L735.779 35.5322H696.917L718.305 49.2559ZM673.93 49.2559H716.059L694.671 35.5322H655.598L673.93 49.2559ZM80.8955 34.3154H119.487L137.639 22.668H101.641L80.8955 34.3154ZM121.733 34.3154H160.534L176.093 22.668H139.885L121.733 34.3154ZM162.567 34.3154H201.598L214.562 22.668H178.127L162.567 34.3154ZM203.419 34.3154H242.646L253.018 22.668H216.385L203.419 34.3154ZM244.266 34.3154H283.675L291.453 22.668H254.639L244.266 34.3154ZM285.14 34.3154H324.688L329.874 22.668H292.92L285.14 34.3154ZM326.017 34.3154H365.683L368.275 22.668H331.203L326.017 34.3154ZM366.926 34.3154H406.646V22.668H369.519L366.926 34.3154ZM407.862 34.3154H447.582L444.989 22.668H407.862V34.3154ZM448.825 34.3154H488.491L483.305 22.668H446.232L448.825 34.3154ZM489.819 34.3154H529.371L521.592 22.668H484.634L489.819 34.3154ZM530.831 34.3154H570.24L559.867 22.668H523.053L530.831 34.3154ZM571.859 34.3154H611.089L598.123 22.668H561.487L571.859 34.3154ZM612.91 34.3154H651.943L636.385 22.668H599.944L612.91 34.3154ZM695.021 34.3154H733.612L712.867 22.668H676.869L695.021 34.3154ZM653.973 34.3154H692.775L674.623 22.668H638.414L653.973 34.3154ZM103.808 21.4512H139.535L155.061 11.4893H121.551L103.808 21.4512ZM141.781 21.4512H177.718L191.025 11.4893H157.307L141.781 21.4512ZM179.752 21.4512H215.917L227.006 11.4893H193.06L179.752 21.4512ZM217.739 21.4512H254.102L262.973 11.4893H228.828L217.739 21.4512ZM255.722 21.4512H292.267L298.92 11.4893H264.593L255.722 21.4512ZM293.732 21.4512H330.416L334.852 11.4893H300.386L293.732 21.4512ZM331.744 21.4512H368.547L370.765 11.4893H336.18L331.744 21.4512ZM369.79 21.4512H406.646V11.4893H372.008L369.79 21.4512ZM407.862 21.4512H444.718L442.5 11.4893H407.862V21.4512ZM445.961 21.4512H482.764L478.328 11.4893H443.743L445.961 21.4512ZM484.092 21.4512H520.779L514.126 11.4893H479.656L484.092 21.4512ZM522.239 21.4512H558.784L549.913 11.4893H515.586L522.239 21.4512ZM560.403 21.4512H596.769L585.68 11.4893H551.532L560.403 21.4512ZM598.59 21.4512H634.759L621.452 11.4893H587.501L598.59 21.4512ZM674.973 21.4512H710.699L692.957 11.4893H659.447L674.973 21.4512ZM636.789 21.4512H672.728L657.202 11.4893H623.481L636.789 21.4512ZM123.718 10.2725H156.957L170.369 1.66602H139.047L123.718 10.2725ZM159.202 10.2725H192.65L204.146 1.66602H172.615L159.202 10.2725ZM194.685 10.2725H228.36L237.941 1.66602H206.182L194.685 10.2725ZM230.183 10.2725H264.057L271.721 1.66602H239.764L230.183 10.2725ZM265.677 10.2725H299.732L305.48 1.66602H273.341L265.677 10.2725ZM301.198 10.2725H335.394L339.226 1.66602H306.947L301.198 10.2725ZM336.722 10.2725H371.035L372.951 1.66602H340.554L336.722 10.2725ZM372.278 10.2725H406.646V1.66602H374.194L372.278 10.2725ZM407.862 10.2725H442.229L440.313 1.66602H407.862V10.2725ZM443.473 10.2725H477.786L473.954 1.66602H441.557L443.473 10.2725ZM479.114 10.2725H513.312L507.564 1.66602H475.282L479.114 10.2725ZM514.773 10.2725H548.829L541.165 1.66602H509.025L514.773 10.2725ZM550.448 10.2725H584.325L574.744 1.66602H542.784L550.448 10.2725ZM586.146 10.2725H619.826L608.33 1.66602H576.565L586.146 10.2725ZM657.551 10.2725H690.789L675.461 1.66602H644.139L657.551 10.2725ZM621.856 10.2725H655.306L641.894 1.66602H610.36L621.856 10.2725Z" fill="url(#paint0_linear_2195_615)"/>
<defs>
<linearGradient id="paint0_linear_2195_615" x1="470.894" y1="0.449205" x2="470.894" y2="311.526" gradientUnits="userSpaceOnUse">
<stop stop-color="white" stop-opacity="0"/>
<stop offset="1" stop-color="white"/>
</linearGradient>
</defs>
</svg>
