<svg width="35" height="36" viewBox="0 0 35 36" fill="none" xmlns="http://www.w3.org/2000/svg">
<g filter="url(#filter0_f_2360_148)">
<path d="M11.8447 20.6797V14.4297C11.8447 14.2639 11.9106 14.105 12.0278 13.9877C12.145 13.8705 12.304 13.8047 12.4697 13.8047H16.8447V12.5547C16.8447 12.3889 16.9106 12.23 17.0278 12.1127C17.145 11.9955 17.304 11.9297 17.4697 11.9297C17.6355 11.9297 17.7945 11.9955 17.9117 12.1127C18.0289 12.23 18.0947 12.3889 18.0947 12.5547V13.8047H22.4697C22.6355 13.8047 22.7945 13.8705 22.9117 13.9877C23.0289 14.105 23.0947 14.2639 23.0947 14.4297V20.6797C23.0947 20.8454 23.0289 21.0044 22.9117 21.1216C22.7945 21.2388 22.6355 21.3047 22.4697 21.3047H20.0435L21.1572 23.5253C21.1939 23.5988 21.2158 23.6787 21.2216 23.7606C21.2273 23.8425 21.2169 23.9248 21.1909 24.0027C21.1649 24.0806 21.1238 24.1526 21.07 24.2146C21.0162 24.2766 20.9507 24.3274 20.8772 24.3641C20.8038 24.4008 20.7238 24.4226 20.6419 24.4284C20.56 24.4342 20.4777 24.4238 20.3999 24.3978C20.322 24.3718 20.25 24.3307 20.188 24.2769C20.126 24.223 20.0752 24.1575 20.0385 24.0841L18.7885 21.5841C18.7459 21.4972 18.7245 21.4014 18.726 21.3047H18.0947V23.1797C18.0947 23.3454 18.0289 23.5044 17.9117 23.6216C17.7945 23.7388 17.6355 23.8047 17.4697 23.8047C17.304 23.8047 17.145 23.7388 17.0278 23.6216C16.9106 23.5044 16.8447 23.3454 16.8447 23.1797V21.3047H16.2135C16.215 21.4014 16.1935 21.4972 16.151 21.5841L14.901 24.0841C14.8643 24.1575 14.8135 24.223 14.7515 24.2769C14.6895 24.3307 14.6175 24.3718 14.5396 24.3978C14.4617 24.4238 14.3795 24.4342 14.2976 24.4284C14.2156 24.4226 14.1357 24.4008 14.0622 24.3641C13.9888 24.3274 13.9233 24.2766 13.8694 24.2146C13.8156 24.1526 13.7745 24.0806 13.7485 24.0027C13.7225 23.9248 13.7121 23.8425 13.7179 23.7606C13.7237 23.6787 13.7455 23.5988 13.7822 23.5253L14.896 21.3047H12.4697C12.304 21.3047 12.145 21.2388 12.0278 21.1216C11.9106 21.0044 11.8447 20.8454 11.8447 20.6797Z" fill="#6FDBFF"/>
</g>
<path d="M11.8447 17.7812V11.5312C11.8447 11.3655 11.9106 11.2065 12.0278 11.0893C12.145 10.9721 12.304 10.9062 12.4697 10.9062H16.8447V9.65625C16.8447 9.49049 16.9106 9.33152 17.0278 9.21431C17.145 9.0971 17.304 9.03125 17.4697 9.03125C17.6355 9.03125 17.7945 9.0971 17.9117 9.21431C18.0289 9.33152 18.0947 9.49049 18.0947 9.65625V10.9062H22.4697C22.6355 10.9062 22.7945 10.9721 22.9117 11.0893C23.0289 11.2065 23.0947 11.3655 23.0947 11.5312V17.7812C23.0947 17.947 23.0289 18.106 22.9117 18.2232C22.7945 18.3404 22.6355 18.4062 22.4697 18.4062H20.0435L21.1572 20.6269C21.1939 20.7003 21.2158 20.7803 21.2216 20.8622C21.2273 20.9441 21.2169 21.0264 21.1909 21.1042C21.1649 21.1821 21.1238 21.2541 21.07 21.3161C21.0162 21.3781 20.9507 21.4289 20.8772 21.4656C20.8038 21.5023 20.7238 21.5242 20.6419 21.53C20.56 21.5357 20.4777 21.5253 20.3999 21.4993C20.322 21.4733 20.25 21.4322 20.188 21.3784C20.126 21.3246 20.0752 21.2591 20.0385 21.1856L18.7885 18.6856C18.7459 18.5987 18.7245 18.503 18.726 18.4062H18.0947V20.2812C18.0947 20.447 18.0289 20.606 17.9117 20.7232C17.7945 20.8404 17.6355 20.9062 17.4697 20.9062C17.304 20.9062 17.145 20.8404 17.0278 20.7232C16.9106 20.606 16.8447 20.447 16.8447 20.2812V18.4062H16.2135C16.215 18.503 16.1935 18.5987 16.151 18.6856L14.901 21.1856C14.8643 21.2591 14.8135 21.3246 14.7515 21.3784C14.6895 21.4322 14.6175 21.4733 14.5396 21.4993C14.4617 21.5253 14.3795 21.5357 14.2976 21.53C14.2156 21.5242 14.1357 21.5023 14.0622 21.4656C13.9888 21.4289 13.9233 21.3781 13.8694 21.3161C13.8156 21.2541 13.7745 21.1821 13.7485 21.1042C13.7225 21.0264 13.7121 20.9441 13.7179 20.8622C13.7237 20.7803 13.7455 20.7003 13.7822 20.6269L14.896 18.4062H12.4697C12.304 18.4062 12.145 18.3404 12.0278 18.2232C11.9106 18.106 11.8447 17.947 11.8447 17.7812Z" fill="white"/>
<defs>
<filter id="filter0_f_2360_148" x="-1.03027" y="-0.320312" width="37" height="37" filterUnits="userSpaceOnUse" color-interpolation-filters="sRGB">
<feFlood flood-opacity="0" result="BackgroundImageFix"/>
<feBlend mode="normal" in="SourceGraphic" in2="BackgroundImageFix" result="shape"/>
<feGaussianBlur stdDeviation="5.5" result="effect1_foregroundBlur_2360_148"/>
</filter>
</defs>
</svg>
