<svg width="36" height="37" viewBox="0 0 36 37" fill="none" xmlns="http://www.w3.org/2000/svg">
<g clip-path="url(#clip0_2199_1263)" filter="url(#filter0_f_2199_1263)">
<path d="M21.7549 11.5781H14.2549C13.4264 11.5791 12.6321 11.9087 12.0463 12.4945C11.4604 13.0803 11.1309 13.8746 11.1299 14.7031V19.7031C11.1308 20.4233 11.3799 21.1211 11.8353 21.6789C12.2907 22.2368 12.9245 22.6206 13.6299 22.7656V24.7031C13.6299 24.8163 13.6606 24.9273 13.7187 25.0244C13.7769 25.1215 13.8603 25.2009 13.96 25.2543C14.0598 25.3077 14.1722 25.333 14.2852 25.3275C14.3982 25.322 14.5076 25.2859 14.6018 25.2231L18.1924 22.8281H21.7549C22.5834 22.8271 23.3777 22.4976 23.9635 21.9117C24.5493 21.3259 24.8789 20.5316 24.8799 19.7031V14.7031C24.8789 13.8746 24.5493 13.0803 23.9635 12.4945C23.3777 11.9087 22.5834 11.5791 21.7549 11.5781ZM20.5049 19.0781H15.5049C15.3391 19.0781 15.1802 19.0123 15.0629 18.8951C14.9457 18.7779 14.8799 18.6189 14.8799 18.4531C14.8799 18.2874 14.9457 18.1284 15.0629 18.0112C15.1802 17.894 15.3391 17.8281 15.5049 17.8281H20.5049C20.6706 17.8281 20.8296 17.894 20.9468 18.0112C21.064 18.1284 21.1299 18.2874 21.1299 18.4531C21.1299 18.6189 21.064 18.7779 20.9468 18.8951C20.8296 19.0123 20.6706 19.0781 20.5049 19.0781ZM21.7549 16.5781H14.2549C14.0891 16.5781 13.9302 16.5123 13.8129 16.3951C13.6957 16.2779 13.6299 16.1189 13.6299 15.9531C13.6299 15.7874 13.6957 15.6284 13.8129 15.5112C13.9302 15.394 14.0891 15.3281 14.2549 15.3281H21.7549C21.9206 15.3281 22.0796 15.394 22.1968 15.5112C22.314 15.6284 22.3799 15.7874 22.3799 15.9531C22.3799 16.1189 22.314 16.2779 22.1968 16.3951C22.0796 16.5123 21.9206 16.5781 21.7549 16.5781Z" fill="#6FDBFF"/>
</g>
<path d="M21.7002 8.625H14.2002C13.3717 8.62599 12.5774 8.95555 11.9916 9.54139C11.4057 10.1272 11.0762 10.9215 11.0752 11.75V16.75C11.0761 17.4701 11.3253 18.1679 11.7806 18.7258C12.236 19.2836 12.8698 19.6674 13.5752 19.8125V21.75C13.5752 21.8632 13.6059 21.9742 13.664 22.0713C13.7222 22.1683 13.8056 22.2478 13.9053 22.3012C14.0051 22.3546 14.1175 22.3798 14.2305 22.3744C14.3435 22.3689 14.4529 22.3328 14.5471 22.27L18.1377 19.875H21.7002C22.5287 19.874 23.323 19.5444 23.9088 18.9586C24.4946 18.3728 24.8242 17.5785 24.8252 16.75V11.75C24.8242 10.9215 24.4946 10.1272 23.9088 9.54139C23.323 8.95555 22.5287 8.62599 21.7002 8.625ZM20.4502 16.125H15.4502C15.2844 16.125 15.1255 16.0592 15.0083 15.9419C14.891 15.8247 14.8252 15.6658 14.8252 15.5C14.8252 15.3342 14.891 15.1753 15.0083 15.0581C15.1255 14.9408 15.2844 14.875 15.4502 14.875H20.4502C20.616 14.875 20.7749 14.9408 20.8921 15.0581C21.0093 15.1753 21.0752 15.3342 21.0752 15.5C21.0752 15.6658 21.0093 15.8247 20.8921 15.9419C20.7749 16.0592 20.616 16.125 20.4502 16.125ZM21.7002 13.625H14.2002C14.0344 13.625 13.8755 13.5592 13.7583 13.4419C13.641 13.3247 13.5752 13.1658 13.5752 13C13.5752 12.8342 13.641 12.6753 13.7583 12.5581C13.8755 12.4408 14.0344 12.375 14.2002 12.375H21.7002C21.866 12.375 22.0249 12.4408 22.1421 12.5581C22.2593 12.6753 22.3252 12.8342 22.3252 13C22.3252 13.1658 22.2593 13.3247 22.1421 13.4419C22.0249 13.5592 21.866 13.625 21.7002 13.625Z" fill="white"/>
<defs>
<filter id="filter0_f_2199_1263" x="-0.365117" y="0.0831251" width="36.74" height="36.74" filterUnits="userSpaceOnUse" color-interpolation-filters="sRGB">
<feFlood flood-opacity="0" result="BackgroundImageFix"/>
<feBlend mode="normal" in="SourceGraphic" in2="BackgroundImageFix" result="shape"/>
<feGaussianBlur stdDeviation="5.435" result="effect1_foregroundBlur_2199_1263"/>
</filter>
<clipPath id="clip0_2199_1263">
<rect width="15" height="15" fill="white" transform="translate(10.5049 10.9531)"/>
</clipPath>
</defs>
</svg>
