<svg width="230" height="49" viewBox="0 0 230 49" fill="none" xmlns="http://www.w3.org/2000/svg">
<g clip-path="url(#clip0_2195_709)">
<g opacity="0.5" filter="url(#filter0_f_2195_709)">
<mask id="mask0_2195_709" style="mask-type:alpha" maskUnits="userSpaceOnUse" x="15" y="15" width="202" height="20">
<path d="M24.8417 34.405C19.5777 34.405 15.6857 30.961 15.6857 25.165C15.6857 19.033 19.8297 15.421 25.4857 15.421C30.1337 15.421 33.8577 17.913 33.8577 22.113C33.8577 22.533 33.8297 22.981 33.8017 23.205H29.7977C29.8257 22.897 29.8257 22.617 29.8257 22.421C29.8257 20.237 27.8377 19.033 25.6537 19.033C22.5177 19.033 20.3617 21.329 20.3617 25.193C20.3617 28.861 22.6297 31.045 25.4857 31.045C27.5577 31.045 29.6297 29.785 29.6297 27.685V27.405H24.8697V24.801H33.9977V34.125H30.4417C30.4697 33.453 30.5257 32.137 30.5257 30.961H30.4977C29.9657 33.117 27.8377 34.405 24.8417 34.405ZM36.0054 34.125V15.701H49.0534V19.313H40.5974V23.457H47.1494V26.257H40.5974V30.513H49.3054V34.125H36.0054ZM50.9285 34.125V15.701H57.5365L64.7605 28.077H64.7885L64.6485 15.701H68.9605V34.125H63.5285L55.1565 19.845H55.1285L55.2405 34.125H50.9285ZM71.211 34.125V15.701H84.259V19.313H75.803V23.457H82.355V26.257H75.803V30.513H84.511V34.125H71.211ZM86.1341 34.125V15.701H94.7301C99.6021 15.701 102.234 17.717 102.234 21.189C102.234 23.541 101.226 25.025 99.4901 25.529V25.585C101.31 26.005 102.122 27.461 102.122 29.533V34.125H97.5301V29.673C97.5301 27.993 96.9141 27.265 95.1781 27.265H90.7261V34.125H86.1341ZM90.7261 24.493H94.9261C96.8581 24.493 97.8381 23.625 97.8381 21.917C97.8381 20.293 96.8301 19.313 94.7021 19.313H90.7261V24.493ZM118.143 34.125L116.883 30.373H109.519L108.259 34.125H103.555L110.667 15.701H116.379L123.491 34.125H118.143ZM110.471 27.517H115.931L113.215 19.453H113.159L110.471 27.517ZM124.949 34.125V15.701H129.541V30.513H137.941V34.125H124.949ZM154.931 34.405C149.247 34.405 145.215 30.877 145.215 24.941C145.215 18.949 149.247 15.421 154.931 15.421C159.971 15.421 163.443 18.277 163.443 22.505C163.443 22.925 163.415 23.429 163.387 23.681H159.383C159.411 23.373 159.411 23.093 159.411 22.953C159.411 20.461 157.647 19.033 155.155 19.033C152.131 19.033 149.975 21.301 149.975 24.941C149.975 28.609 152.187 30.793 155.155 30.793C157.843 30.793 159.467 29.337 159.467 27.013C159.467 26.901 159.467 26.733 159.439 26.425H163.471C163.499 26.789 163.499 27.097 163.499 27.321C163.499 31.549 159.999 34.405 154.931 34.405ZM165.316 34.125V15.701H169.908V22.841H177.804V15.701H182.396V34.125H177.804V26.425H169.908V34.125H165.316ZM198.446 34.125L197.186 30.373H189.822L188.562 34.125H183.858L190.97 15.701H196.682L203.794 34.125H198.446ZM190.774 27.517H196.234L193.518 19.453H193.462L190.774 27.517ZM206.369 34.125V19.313H201.133V15.701H216.169V19.313H210.961V34.125H206.369Z" fill="white"/>
</mask>
<g mask="url(#mask0_2195_709)">
<rect x="14.8457" y="7.17578" width="1406.58" height="37.748" fill="url(#paint0_linear_2195_709)"/>
</g>
</g>
<g opacity="0.5" filter="url(#filter1_f_2195_709)">
<mask id="mask1_2195_709" style="mask-type:alpha" maskUnits="userSpaceOnUse" x="15" y="15" width="128" height="20">
<path d="M25.4017 34.405C19.7177 34.405 15.6857 30.877 15.6857 24.941C15.6857 18.949 19.7177 15.421 25.4017 15.421C30.4417 15.421 33.9137 18.277 33.9137 22.505C33.9137 22.925 33.8857 23.429 33.8577 23.681H29.8537C29.8817 23.373 29.8817 23.093 29.8817 22.953C29.8817 20.461 28.1177 19.033 25.6257 19.033C22.6017 19.033 20.4457 21.301 20.4457 24.941C20.4457 28.609 22.6577 30.793 25.6257 30.793C28.3137 30.793 29.9377 29.337 29.9377 27.013C29.9377 26.901 29.9377 26.733 29.9097 26.425H33.9417C33.9697 26.789 33.9697 27.097 33.9697 27.321C33.9697 31.549 30.4697 34.405 25.4017 34.405ZM45.2506 34.405C39.6786 34.405 35.3666 30.849 35.3666 24.829C35.3666 18.921 39.6786 15.421 45.2506 15.421C50.8226 15.421 55.1346 18.921 55.1346 24.829C55.1346 30.849 50.8226 34.405 45.2506 34.405ZM45.2506 30.793C48.1626 30.793 50.3746 28.581 50.3746 24.857C50.3746 21.189 48.1626 19.033 45.2506 19.033C42.3386 19.033 40.1266 21.189 40.1266 24.857C40.1266 28.581 42.3386 30.793 45.2506 30.793ZM56.9441 34.125V15.701H64.3641C70.2441 15.701 73.8841 18.837 73.8841 24.885C73.8841 30.961 70.4401 34.125 64.9521 34.125H56.9441ZM61.5361 30.513H64.8961C67.4441 30.513 69.3201 28.777 69.3201 24.885C69.3201 20.937 67.3321 19.313 64.6161 19.313H61.5361V30.513ZM75.8354 34.125V15.701H80.4274V34.125H75.8354ZM82.7982 34.125V15.701H89.4062L96.6302 28.077H96.6582L96.5182 15.701H100.83V34.125H95.3982L87.0262 19.845H86.9982L87.1102 34.125H82.7982ZM111.817 34.405C106.553 34.405 102.661 30.961 102.661 25.165C102.661 19.033 106.805 15.421 112.461 15.421C117.109 15.421 120.833 17.913 120.833 22.113C120.833 22.533 120.805 22.981 120.777 23.205H116.773C116.801 22.897 116.801 22.617 116.801 22.421C116.801 20.237 114.813 19.033 112.629 19.033C109.493 19.033 107.337 21.329 107.337 25.193C107.337 28.861 109.605 31.045 112.461 31.045C114.533 31.045 116.605 29.785 116.605 27.685V27.405H111.845V24.801H120.973V34.125H117.417C117.445 33.453 117.501 32.137 117.501 30.961H117.473C116.941 33.117 114.813 34.405 111.817 34.405ZM123.484 34.125V29.925H127.628V34.125H123.484ZM130.888 34.125V29.925H135.032V34.125H130.888ZM138.292 34.125V29.925H142.436V34.125H138.292Z" fill="white"/>
</mask>
<g mask="url(#mask1_2195_709)">
<rect x="14.8457" y="7.17578" width="1406.58" height="37.748" fill="url(#paint1_linear_2195_709)"/>
</g>
</g>
<g opacity="0.5" filter="url(#filter2_f_2195_709)">
<mask id="mask2_2195_709" style="mask-type:alpha" maskUnits="userSpaceOnUse" x="15" y="15" width="202" height="20">
<path d="M24.8417 34.405C19.5777 34.405 15.6857 30.961 15.6857 25.165C15.6857 19.033 19.8297 15.421 25.4857 15.421C30.1337 15.421 33.8577 17.913 33.8577 22.113C33.8577 22.533 33.8297 22.981 33.8017 23.205H29.7977C29.8257 22.897 29.8257 22.617 29.8257 22.421C29.8257 20.237 27.8377 19.033 25.6537 19.033C22.5177 19.033 20.3617 21.329 20.3617 25.193C20.3617 28.861 22.6297 31.045 25.4857 31.045C27.5577 31.045 29.6297 29.785 29.6297 27.685V27.405H24.8697V24.801H33.9977V34.125H30.4417C30.4697 33.453 30.5257 32.137 30.5257 30.961H30.4977C29.9657 33.117 27.8377 34.405 24.8417 34.405ZM36.0054 34.125V15.701H49.0534V19.313H40.5974V23.457H47.1494V26.257H40.5974V30.513H49.3054V34.125H36.0054ZM50.9285 34.125V15.701H57.5365L64.7605 28.077H64.7885L64.6485 15.701H68.9605V34.125H63.5285L55.1565 19.845H55.1285L55.2405 34.125H50.9285ZM71.211 34.125V15.701H84.259V19.313H75.803V23.457H82.355V26.257H75.803V30.513H84.511V34.125H71.211ZM86.1341 34.125V15.701H94.7301C99.6021 15.701 102.234 17.717 102.234 21.189C102.234 23.541 101.226 25.025 99.4901 25.529V25.585C101.31 26.005 102.122 27.461 102.122 29.533V34.125H97.5301V29.673C97.5301 27.993 96.9141 27.265 95.1781 27.265H90.7261V34.125H86.1341ZM90.7261 24.493H94.9261C96.8581 24.493 97.8381 23.625 97.8381 21.917C97.8381 20.293 96.8301 19.313 94.7021 19.313H90.7261V24.493ZM118.143 34.125L116.883 30.373H109.519L108.259 34.125H103.555L110.667 15.701H116.379L123.491 34.125H118.143ZM110.471 27.517H115.931L113.215 19.453H113.159L110.471 27.517ZM124.949 34.125V15.701H129.541V30.513H137.941V34.125H124.949ZM154.931 34.405C149.247 34.405 145.215 30.877 145.215 24.941C145.215 18.949 149.247 15.421 154.931 15.421C159.971 15.421 163.443 18.277 163.443 22.505C163.443 22.925 163.415 23.429 163.387 23.681H159.383C159.411 23.373 159.411 23.093 159.411 22.953C159.411 20.461 157.647 19.033 155.155 19.033C152.131 19.033 149.975 21.301 149.975 24.941C149.975 28.609 152.187 30.793 155.155 30.793C157.843 30.793 159.467 29.337 159.467 27.013C159.467 26.901 159.467 26.733 159.439 26.425H163.471C163.499 26.789 163.499 27.097 163.499 27.321C163.499 31.549 159.999 34.405 154.931 34.405ZM165.316 34.125V15.701H169.908V22.841H177.804V15.701H182.396V34.125H177.804V26.425H169.908V34.125H165.316ZM198.446 34.125L197.186 30.373H189.822L188.562 34.125H183.858L190.97 15.701H196.682L203.794 34.125H198.446ZM190.774 27.517H196.234L193.518 19.453H193.462L190.774 27.517ZM206.369 34.125V19.313H201.133V15.701H216.169V19.313H210.961V34.125H206.369Z" fill="white"/>
</mask>
<g mask="url(#mask2_2195_709)">
<rect x="14.8457" y="7.17578" width="905.223" height="37.748" fill="url(#paint2_linear_2195_709)"/>
</g>
</g>
<mask id="mask3_2195_709" style="mask-type:alpha" maskUnits="userSpaceOnUse" x="15" y="16" width="202" height="20">
<path d="M24.7392 35.2644C19.4752 35.2644 15.5832 31.8204 15.5832 26.0244C15.5832 19.8924 19.7272 16.2804 25.3832 16.2804C30.0312 16.2804 33.7552 18.7724 33.7552 22.9724C33.7552 23.3924 33.7272 23.8404 33.6992 24.0644H29.6952C29.7232 23.7564 29.7232 23.4764 29.7232 23.2804C29.7232 21.0964 27.7352 19.8924 25.5512 19.8924C22.4152 19.8924 20.2592 22.1884 20.2592 26.0524C20.2592 29.7204 22.5272 31.9044 25.3832 31.9044C27.4552 31.9044 29.5272 30.6444 29.5272 28.5444V28.2644H24.7672V25.6604H33.8952V34.9844H30.3392C30.3672 34.3124 30.4232 32.9964 30.4232 31.8204H30.3952C29.8632 33.9764 27.7352 35.2644 24.7392 35.2644ZM35.9029 34.9844V16.5604H48.9509V20.1724H40.4949V24.3164H47.0469V27.1164H40.4949V31.3724H49.2029V34.9844H35.9029ZM50.826 34.9844V16.5604H57.434L64.658 28.9364H64.686L64.546 16.5604H68.858V34.9844H63.426L55.054 20.7044H55.026L55.138 34.9844H50.826ZM71.1085 34.9844V16.5604H84.1565V20.1724H75.7005V24.3164H82.2525V27.1164H75.7005V31.3724H84.4085V34.9844H71.1085ZM86.0316 34.9844V16.5604H94.6276C99.4996 16.5604 102.132 18.5764 102.132 22.0484C102.132 24.4004 101.124 25.8844 99.3876 26.3884V26.4444C101.208 26.8644 102.02 28.3204 102.02 30.3924V34.9844H97.4276V30.5324C97.4276 28.8524 96.8116 28.1244 95.0756 28.1244H90.6236V34.9844H86.0316ZM90.6236 25.3524H94.8236C96.7556 25.3524 97.7356 24.4844 97.7356 22.7764C97.7356 21.1524 96.7276 20.1724 94.5996 20.1724H90.6236V25.3524ZM118.04 34.9844L116.78 31.2324H109.416L108.156 34.9844H103.452L110.564 16.5604H116.276L123.388 34.9844H118.04ZM110.368 28.3764H115.828L113.112 20.3124H113.056L110.368 28.3764ZM124.847 34.9844V16.5604H129.439V31.3724H137.839V34.9844H124.847ZM154.829 35.2644C149.145 35.2644 145.113 31.7364 145.113 25.8004C145.113 19.8084 149.145 16.2804 154.829 16.2804C159.869 16.2804 163.341 19.1364 163.341 23.3644C163.341 23.7844 163.313 24.2884 163.285 24.5404H159.281C159.309 24.2324 159.309 23.9524 159.309 23.8124C159.309 21.3204 157.545 19.8924 155.053 19.8924C152.029 19.8924 149.873 22.1604 149.873 25.8004C149.873 29.4684 152.085 31.6524 155.053 31.6524C157.741 31.6524 159.365 30.1964 159.365 27.8724C159.365 27.7604 159.365 27.5924 159.337 27.2844H163.369C163.397 27.6484 163.397 27.9564 163.397 28.1804C163.397 32.4084 159.897 35.2644 154.829 35.2644ZM165.214 34.9844V16.5604H169.806V23.7004H177.702V16.5604H182.294V34.9844H177.702V27.2844H169.806V34.9844H165.214ZM198.343 34.9844L197.083 31.2324H189.719L188.459 34.9844H183.755L190.867 16.5604H196.579L203.691 34.9844H198.343ZM190.671 28.3764H196.131L193.415 20.3124H193.359L190.671 28.3764ZM206.266 34.9844V20.1724H201.03V16.5604H216.066V20.1724H210.858V34.9844H206.266Z" fill="white"/>
</mask>
<g mask="url(#mask3_2195_709)">
<rect x="14.7432" y="8.03516" width="905.223" height="37.748" fill="url(#paint3_linear_2195_709)"/>
</g>
</g>
<defs>
<filter id="filter0_f_2195_709" x="0.685547" y="0.421875" width="230.483" height="48.9844" filterUnits="userSpaceOnUse" color-interpolation-filters="sRGB">
<feFlood flood-opacity="0" result="BackgroundImageFix"/>
<feBlend mode="normal" in="SourceGraphic" in2="BackgroundImageFix" result="shape"/>
<feGaussianBlur stdDeviation="7.5" result="effect1_foregroundBlur_2195_709"/>
</filter>
<filter id="filter1_f_2195_709" x="5.68555" y="5.42188" width="146.75" height="38.9844" filterUnits="userSpaceOnUse" color-interpolation-filters="sRGB">
<feFlood flood-opacity="0" result="BackgroundImageFix"/>
<feBlend mode="normal" in="SourceGraphic" in2="BackgroundImageFix" result="shape"/>
<feGaussianBlur stdDeviation="5" result="effect1_foregroundBlur_2195_709"/>
</filter>
<filter id="filter2_f_2195_709" x="10.6855" y="10.4219" width="210.483" height="28.9844" filterUnits="userSpaceOnUse" color-interpolation-filters="sRGB">
<feFlood flood-opacity="0" result="BackgroundImageFix"/>
<feBlend mode="normal" in="SourceGraphic" in2="BackgroundImageFix" result="shape"/>
<feGaussianBlur stdDeviation="2.5" result="effect1_foregroundBlur_2195_709"/>
</filter>
<linearGradient id="paint0_linear_2195_709" x1="14.8457" y1="26.0498" x2="1421.42" y2="26.0498" gradientUnits="userSpaceOnUse">
<stop stop-color="#15D3D3"/>
<stop offset="0.120192" stop-color="#7777EA"/>
<stop offset="0.259615" stop-color="#00FFFF"/>
<stop offset="0.432692" stop-color="#FE758D"/>
<stop offset="0.605769" stop-color="#1DD21D"/>
<stop offset="0.778846" stop-color="#FFFF00"/>
<stop offset="0.879808" stop-color="#FFA500"/>
<stop offset="1" stop-color="#CA1CCA"/>
</linearGradient>
<linearGradient id="paint1_linear_2195_709" x1="14.8457" y1="26.0498" x2="1421.42" y2="26.0498" gradientUnits="userSpaceOnUse">
<stop stop-color="#15D3D3"/>
<stop offset="0.120192" stop-color="#7777EA"/>
<stop offset="0.259615" stop-color="#00FFFF"/>
<stop offset="0.432692" stop-color="#FE758D"/>
<stop offset="0.605769" stop-color="#1DD21D"/>
<stop offset="0.778846" stop-color="#FFFF00"/>
<stop offset="0.879808" stop-color="#FFA500"/>
<stop offset="1" stop-color="#CA1CCA"/>
</linearGradient>
<linearGradient id="paint2_linear_2195_709" x1="14.8457" y1="26.0498" x2="920.069" y2="26.0498" gradientUnits="userSpaceOnUse">
<stop stop-color="#15D3D3"/>
<stop offset="0.120192" stop-color="#7777EA"/>
<stop offset="0.259615" stop-color="#00FFFF"/>
<stop offset="0.432692" stop-color="#FE758D"/>
<stop offset="0.605769" stop-color="#1DD21D"/>
<stop offset="0.778846" stop-color="#FFFF00"/>
<stop offset="0.879808" stop-color="#FFA500"/>
<stop offset="1" stop-color="#CA1CCA"/>
</linearGradient>
<linearGradient id="paint3_linear_2195_709" x1="14.7432" y1="26.9092" x2="919.966" y2="26.9092" gradientUnits="userSpaceOnUse">
<stop stop-color="#15D3D3"/>
<stop offset="0.120192" stop-color="#7777EA"/>
<stop offset="0.259615" stop-color="#00FFFF"/>
<stop offset="0.432692" stop-color="#FE758D"/>
<stop offset="0.605769" stop-color="#1DD21D"/>
<stop offset="0.778846" stop-color="#FFFF00"/>
<stop offset="0.879808" stop-color="#FFA500"/>
<stop offset="1" stop-color="#CA1CCA"/>
</linearGradient>
<clipPath id="clip0_2195_709">
<rect width="229" height="48" fill="white" transform="translate(0.585938 0.179688)"/>
</clipPath>
</defs>
</svg>
