<svg width="24" height="23" viewBox="0 0 24 23" fill="none" xmlns="http://www.w3.org/2000/svg">
<g opacity="0.5" clip-path="url(#clip0_2360_100)">
<path d="M19.3471 11.7118C19.3471 11.2619 19.0031 10.918 18.5533 10.918C18.1035 10.918 17.7595 11.2619 17.7595 11.7118C17.7595 14.8075 15.2459 17.3212 12.1501 17.3212C9.05435 17.3212 6.54069 14.8075 6.54069 11.7118C6.54069 11.2619 6.19672 10.918 5.74691 10.918C5.2971 10.918 4.95312 11.2619 4.95312 11.7118C4.95312 15.3896 7.70491 18.4854 11.3563 18.8823V20.999H8.47224C8.02243 20.999 7.67845 21.343 7.67845 21.7928C7.67845 22.2426 8.02243 22.5866 8.47224 22.5866H15.828C16.2778 22.5866 16.6218 22.2426 16.6218 21.7928C16.6218 21.343 16.2778 20.999 15.828 20.999H12.9439V18.8823C16.5953 18.4854 19.3471 15.3896 19.3471 11.7118Z" fill="white"/>
<path d="M12.1521 0.0976562C9.71786 0.0976562 7.7334 2.08212 7.7334 4.51639V11.6869C7.7334 14.1476 9.71786 16.1056 12.1521 16.1321C14.5864 16.1321 16.5709 14.1476 16.5709 11.7134V4.51639C16.5709 2.08212 14.5864 0.0976562 12.1521 0.0976562Z" fill="white"/>
</g>
<defs>
<clipPath id="clip0_2360_100">
<rect width="22.4906" height="22.4906" fill="white" transform="translate(0.904297 0.0976562)"/>
</clipPath>
</defs>
</svg>
