<svg width="16" height="15" viewBox="0 0 16 15" fill="none" xmlns="http://www.w3.org/2000/svg">
<path d="M15.5247 12.9042L12.0761 9.45539C12.662 8.52256 13.0021 7.42 13.0021 6.23675C13.0021 2.88917 10.2883 0.175781 6.94085 0.175781C3.5934 0.175781 0.879883 2.88917 0.879883 6.23675C0.879883 9.58445 3.59328 12.2976 6.94085 12.2976C8.22854 12.2976 9.42126 11.895 10.4027 11.2109L13.8103 14.6188C14.047 14.8553 14.3574 14.9731 14.6675 14.9731C14.9779 14.9731 15.2879 14.8553 15.525 14.6188C15.9982 14.1451 15.9982 13.3778 15.5247 12.9042ZM6.94085 10.3339C4.67828 10.3339 2.84393 8.4997 2.84393 6.237C2.84393 3.97431 4.67828 2.13995 6.94085 2.13995C9.20355 2.13995 11.0378 3.97431 11.0378 6.237C11.0378 8.4997 9.20355 10.3339 6.94085 10.3339Z" fill="white"/>
</svg>
