<svg width="37" height="37" viewBox="0 0 37 37" fill="none" xmlns="http://www.w3.org/2000/svg">
<g opacity="0.5" clip-path="url(#clip0_2360_196)" filter="url(#filter0_f_2360_196)">
<g clip-path="url(#clip1_2360_196)">
<g clip-path="url(#clip2_2360_196)">
<path d="M24.0195 12.3516H12.7695C11.9941 12.3516 11.3633 12.9824 11.3633 13.7578V23.1328C11.3633 23.9083 11.9941 24.5391 12.7695 24.5391H24.0195C24.795 24.5391 25.4258 23.9083 25.4258 23.1328V13.7578C25.4258 12.9824 24.795 12.3516 24.0195 12.3516ZM20.9868 18.8429L17.2368 21.1866C17.1609 21.234 17.0748 21.2578 16.9883 21.2578C16.91 21.2578 16.8317 21.2384 16.7612 21.199C16.612 21.1164 16.5195 20.9596 16.5195 20.7891V16.1016C16.5195 15.931 16.612 15.7743 16.7612 15.6916C16.91 15.609 17.0922 15.614 17.2368 15.704L20.9868 18.0477C21.1237 18.1336 21.207 18.2837 21.207 18.4453C21.207 18.6069 21.1237 18.757 20.9868 18.8429Z" fill="#6FDBFF"/>
</g>
<path d="M16.1416 17.1289C16.0919 17.1287 16.0432 17.1425 16.001 17.1688C15.958 17.1926 15.9222 17.2276 15.8974 17.2701C15.8727 17.3126 15.8599 17.361 15.8604 17.4102V22.0742C15.8606 22.1232 15.8737 22.1713 15.8984 22.2136C15.923 22.2559 15.9583 22.2911 16.0008 22.3155C16.0432 22.3399 16.0913 22.3528 16.1403 22.3528C16.1893 22.3528 16.2374 22.34 16.2799 22.3156L20.7377 19.7422L16.2799 17.1687C16.2381 17.1436 16.1904 17.1298 16.1416 17.1289Z" fill="#6FDBFF"/>
</g>
</g>
<g clip-path="url(#clip3_2360_196)">
<path d="M23.9648 9.39844H12.7148C11.9394 9.39844 11.3086 10.0292 11.3086 10.8047V20.1797C11.3086 20.9551 11.9394 21.5859 12.7148 21.5859H23.9648C24.7403 21.5859 25.3711 20.9551 25.3711 20.1797V10.8047C25.3711 10.0292 24.7403 9.39844 23.9648 9.39844ZM20.9322 15.8898L17.1822 18.2335C17.1062 18.2809 17.0201 18.3047 16.9336 18.3047C16.8553 18.3047 16.777 18.2852 16.7065 18.2459C16.5573 18.1632 16.4648 18.0065 16.4648 17.8359V13.1484C16.4648 12.9779 16.5573 12.8211 16.7065 12.7385C16.8553 12.6559 17.0375 12.6609 17.1822 12.7509L20.9322 15.0946C21.069 15.1805 21.1523 15.3306 21.1523 15.4922C21.1523 15.6538 21.069 15.8039 20.9322 15.8898Z" fill="white"/>
</g>
<defs>
<filter id="filter0_f_2360_196" x="-0.031496" y="0.0183086" width="36.8511" height="36.8501" filterUnits="userSpaceOnUse" color-interpolation-filters="sRGB">
<feFlood flood-opacity="0" result="BackgroundImageFix"/>
<feBlend mode="normal" in="SourceGraphic" in2="BackgroundImageFix" result="shape"/>
<feGaussianBlur stdDeviation="5.43616" result="effect1_foregroundBlur_2360_196"/>
</filter>
<clipPath id="clip0_2360_196">
<rect width="15.1066" height="15.1066" fill="white" transform="translate(10.8408 10.8906)"/>
</clipPath>
<clipPath id="clip1_2360_196">
<rect width="15" height="15" fill="white" transform="translate(10.8945 10.9453)"/>
</clipPath>
<clipPath id="clip2_2360_196">
<rect width="15" height="15" fill="white" transform="translate(10.8945 10.9453)"/>
</clipPath>
<clipPath id="clip3_2360_196">
<rect width="15" height="15" fill="white" transform="translate(10.8398 7.99219)"/>
</clipPath>
</defs>
</svg>
