<svg width="16" height="16" viewBox="0 0 16 16" fill="none" xmlns="http://www.w3.org/2000/svg">
<g clip-path="url(#clip0_2195_727)">
<path fill-rule="evenodd" clip-rule="evenodd" d="M10.8506 5.0625C9.47559 5.0625 8.35059 3.9375 8.35059 2.5625V0.0625H4.60059C3.22559 0.0625 2.10059 1.1875 2.10059 2.5625V12.5625C2.10059 13.9375 3.22559 15.0625 4.60059 15.0625H10.8506C12.2256 15.0625 13.3506 13.9375 13.3506 12.5625V5.0625H10.8506ZM7.72559 6.3125C8.07077 6.3125 8.35059 6.59231 8.35059 6.9375V8.1875H9.60059C9.94577 8.1875 10.2256 8.46731 10.2256 8.8125C10.2256 9.15769 9.94577 9.4375 9.60059 9.4375H8.35059V10.6875C8.35059 11.0327 8.07077 11.3125 7.72559 11.3125C7.3804 11.3125 7.10059 11.0327 7.10059 10.6875V9.4375H5.85059C5.50541 9.4375 5.22559 9.15769 5.22559 8.8125C5.22559 8.46731 5.50541 8.1875 5.85059 8.1875H7.10059V6.9375C7.10059 6.59231 7.3804 6.3125 7.72559 6.3125Z" fill="white"/>
<path d="M13.1006 3.8125L9.60059 0.3125V2.5625C9.60059 3.25 10.1631 3.8125 10.8506 3.8125H13.1006Z" fill="white"/>
<g clip-path="url(#clip1_2195_727)">
<path fill-rule="evenodd" clip-rule="evenodd" d="M114.392 -77.7708C67.4589 -77.7708 29.0589 -116.171 29.0589 -163.104V-248.438H-98.9411C-145.874 -248.438 -184.274 -210.037 -184.274 -163.104V178.229C-184.274 225.163 -145.874 263.562 -98.9411 263.562H114.392C161.326 263.562 199.726 225.163 199.726 178.229V-77.7708H114.392ZM7.72559 -35.1042C19.508 -35.1042 29.0589 -25.5532 29.0589 -13.7708V28.8958H71.7256C83.508 28.8958 93.0589 38.4468 93.0589 50.2292C93.0589 62.0116 83.508 71.5625 71.7256 71.5625H29.0589V114.229C29.0589 126.012 19.508 135.562 7.72559 135.562C-4.05681 135.562 -13.6077 126.012 -13.6077 114.229V71.5625H-56.2744C-68.0564 71.5625 -77.6077 62.0116 -77.6077 50.2292C-77.6077 38.4468 -68.0564 28.8958 -56.2744 28.8958H-13.6077V-13.7708C-13.6077 -25.5532 -4.05681 -35.1042 7.72559 -35.1042Z" fill="black"/>
</g>
</g>
<defs>
<clipPath id="clip0_2195_727">
<rect width="15" height="15" fill="white" transform="translate(0.225586 0.0625)"/>
</clipPath>
<clipPath id="clip1_2195_727">
<rect width="512" height="512" fill="white" transform="translate(-248.274 -248.438)"/>
</clipPath>
</defs>
</svg>
