<svg width="16" height="16" viewBox="0 0 16 16" fill="none" xmlns="http://www.w3.org/2000/svg">
<g clip-path="url(#clip0_2195_824)">
<g clip-path="url(#clip1_2195_824)">
<path d="M14.8698 8.19531H9.67119C9.44399 8.19531 9.25879 8.38051 9.25879 8.60767C9.25879 8.72337 9.30796 8.82759 9.38463 8.90279L13.0453 12.5634C13.1204 12.6444 13.2291 12.6951 13.3477 12.6951C13.4909 12.6951 13.6168 12.6228 13.6906 12.5128C14.5906 11.4681 15.1693 10.1413 15.2736 8.68142C15.2793 8.65684 15.2822 8.63225 15.2822 8.60762C15.2823 8.38051 15.0985 8.19531 14.8698 8.19531Z" fill="white"/>
<path d="M8.10135 0.722656C7.87415 0.724045 7.69043 0.907859 7.69043 1.13501V6.91244C7.69043 7.14108 7.87415 7.32628 8.10135 7.32628H13.8803C14.1075 7.32628 14.2926 7.14108 14.2926 6.91244C14.0886 3.58755 11.4277 0.926703 8.10135 0.722656Z" fill="white"/>
<path d="M11.2772 12.228L7.01466 7.96551C6.94233 7.89171 6.89895 7.78897 6.89895 7.67757L6.89742 1.65701C6.89742 1.42986 6.7137 1.24609 6.4865 1.24609C3.0241 1.45736 0.282227 4.33374 0.282227 7.84833C0.282227 11.5017 3.24407 14.465 6.89742 14.465C8.56424 14.465 10.0864 13.8486 11.2497 12.8314C11.3394 12.7561 11.3958 12.6433 11.3958 12.5174C11.3958 12.406 11.3509 12.3032 11.2772 12.228Z" fill="white"/>
</g>
</g>
<defs>
<clipPath id="clip0_2195_824">
<rect width="15.1066" height="15.1066" fill="white" transform="translate(0.226562 0.0390625)"/>
</clipPath>
<clipPath id="clip1_2195_824">
<rect width="15" height="15" fill="white" transform="translate(0.279297 0.09375)"/>
</clipPath>
</defs>
</svg>
