<svg width="16" height="16" viewBox="0 0 16 16" fill="none" xmlns="http://www.w3.org/2000/svg">
<g clip-path="url(#clip0_2195_851)">
<path d="M13.8203 1.44531H1.63281C1.23438 1.44531 0.929688 1.75 0.929688 2.14844V10.8203C0.929688 11.2188 1.23438 11.5234 1.63281 11.5234H2.80469V14.1016C2.80469 14.1953 2.875 14.2891 2.94531 14.3125C2.96875 14.3125 2.99219 14.3359 3.03906 14.3359C3.10938 14.3359 3.15625 14.3125 3.20312 14.2656L5.71094 11.5234H13.8203C14.2188 11.5234 14.5234 11.2188 14.5234 10.8203V2.14844C14.5234 1.75 14.2188 1.44531 13.8203 1.44531ZM5.38281 7.30469C4.86719 7.30469 4.44531 6.88281 4.44531 6.36719C4.44531 5.85156 4.86719 5.42969 5.38281 5.42969C5.89844 5.42969 6.32031 5.85156 6.32031 6.36719C6.32031 6.88281 5.89844 7.30469 5.38281 7.30469ZM7.72656 7.30469C7.21094 7.30469 6.78906 6.88281 6.78906 6.36719C6.78906 5.85156 7.21094 5.42969 7.72656 5.42969C8.24219 5.42969 8.66406 5.85156 8.66406 6.36719C8.66406 6.88281 8.24219 7.30469 7.72656 7.30469ZM10.0703 7.30469C9.55469 7.30469 9.13281 6.88281 9.13281 6.36719C9.13281 5.85156 9.55469 5.42969 10.0703 5.42969C10.5859 5.42969 11.0078 5.85156 11.0078 6.36719C11.0078 6.88281 10.5859 7.30469 10.0703 7.30469Z" fill="white"/>
</g>
<defs>
<clipPath id="clip0_2195_851">
<rect width="15" height="15" fill="white" transform="translate(0.226562 0.0390625)"/>
</clipPath>
</defs>
</svg>
