<svg width="16" height="16" viewBox="0 0 16 16" fill="none" xmlns="http://www.w3.org/2000/svg">
<g clip-path="url(#clip0_2195_763)">
<path fill-rule="evenodd" clip-rule="evenodd" d="M12.7812 4.46875C11.7457 4.46875 10.9062 3.62928 10.9062 2.59375C10.9062 2.25632 10.9954 1.93971 11.1514 1.66618C10.968 1.62818 10.7749 1.59943 10.5709 1.57733C9.85712 1.49999 8.95738 1.49999 7.8095 1.5H7.753C6.60512 1.49999 5.70538 1.49999 4.99155 1.57733C4.26309 1.65626 3.67285 1.8202 3.1689 2.18634C2.86381 2.40801 2.59551 2.67631 2.37384 2.9814C2.0077 3.48535 1.84376 4.07559 1.76483 4.80405C1.68749 5.51788 1.68749 6.41763 1.6875 7.56544V7.622C1.68749 8.76988 1.68749 9.66962 1.76483 10.3834C1.84376 11.1119 2.0077 11.7021 2.37384 12.2061C2.59551 12.5112 2.86381 12.7795 3.1689 13.0011C3.67285 13.3673 4.26309 13.5313 4.99155 13.6102C5.70537 13.6875 6.60513 13.6875 7.75294 13.6875H7.80956C8.95737 13.6875 9.85712 13.6875 10.5709 13.6102C11.2994 13.5313 11.8896 13.3673 12.3936 13.0011C12.6987 12.7795 12.967 12.5112 13.1886 12.2061C13.5548 11.7021 13.7188 11.1119 13.7977 10.3834C13.875 9.66962 13.875 8.76987 13.875 7.62206V7.56544C13.875 6.41763 13.875 5.51787 13.7977 4.80405C13.7756 4.60011 13.7468 4.40702 13.7088 4.22361C13.4353 4.37962 13.1187 4.46875 12.7812 4.46875ZM11.1127 5.38719C11.3451 5.5012 11.4411 5.78204 11.3271 6.01447L10.4144 7.87512C9.77525 9.178 7.89688 9.11438 7.34738 7.77125C7.10419 7.17669 6.2727 7.1485 5.9898 7.72525L5.07709 9.58587C4.96308 9.81831 4.68224 9.91431 4.44981 9.80031C4.21739 9.68631 4.12139 9.40544 4.23541 9.173L5.14811 7.31238C5.78722 6.00948 7.66562 6.07311 8.21512 7.41625C8.45831 8.01081 9.28981 8.039 9.57269 7.46225L10.4854 5.60159C10.5994 5.36917 10.8802 5.27317 11.1127 5.38719Z" fill="white"/>
<path d="M11.5312 2.59375C11.5312 3.28411 12.0909 3.84375 12.7812 3.84375C13.4716 3.84375 14.0312 3.28411 14.0312 2.59375C14.0312 1.90339 13.4716 1.34375 12.7812 1.34375C12.0909 1.34375 11.5312 1.90339 11.5312 2.59375Z" fill="white"/>
</g>
<defs>
<clipPath id="clip0_2195_763">
<rect width="15.1066" height="15.1066" fill="white" transform="translate(0.226562 0.0390625)"/>
</clipPath>
</defs>
</svg>
