<svg width="16" height="16" viewBox="0 0 16 16" fill="none" xmlns="http://www.w3.org/2000/svg">
<g clip-path="url(#clip0_2195_758)">
<g clip-path="url(#clip1_2195_758)">
<path d="M14.8759 6.61412C14.8755 6.61378 14.8752 6.61343 14.8748 6.61309L8.75601 0.494507C8.4952 0.233582 8.14845 0.0898438 7.7796 0.0898438C7.41076 0.0898438 7.064 0.233467 6.80308 0.494392L0.68747 6.60989C0.68541 6.61195 0.68335 6.61412 0.68129 6.61618C0.145706 7.15485 0.146622 8.02884 0.683922 8.56614C0.929398 8.81173 1.25361 8.95398 1.60025 8.96886C1.61433 8.97023 1.62852 8.97092 1.64282 8.97092H1.8867V13.4738C1.8867 14.3649 2.61168 15.0898 3.50295 15.0898H5.89682C6.13943 15.0898 6.33627 14.8931 6.33627 14.6504V11.1201C6.33627 10.7135 6.66701 10.3828 7.07362 10.3828H8.48559C8.8922 10.3828 9.22293 10.7135 9.22293 11.1201V14.6504C9.22293 14.8931 9.41965 15.0898 9.66238 15.0898H12.0563C12.9475 15.0898 13.6725 14.3649 13.6725 13.4738V8.97092H13.8986C14.2674 8.97092 14.6141 8.82729 14.8752 8.56637C15.413 8.02815 15.4133 7.15268 14.8759 6.61412Z" fill="white"/>
</g>
</g>
<defs>
<clipPath id="clip0_2195_758">
<rect width="15.1066" height="15.1066" fill="white" transform="translate(0.226562 0.0390625)"/>
</clipPath>
<clipPath id="clip1_2195_758">
<rect width="15" height="15" fill="white" transform="translate(0.280273 0.0898438)"/>
</clipPath>
</defs>
</svg>
