<svg width="16" height="16" viewBox="0 0 16 16" fill="none" xmlns="http://www.w3.org/2000/svg">
<path fill-rule="evenodd" clip-rule="evenodd" d="M3.19434 11.9141C3.19434 11.4826 3.54411 11.1328 3.97559 11.1328H12.7256C12.9845 11.1328 13.1943 10.9229 13.1943 10.6641C13.1943 10.6335 13.1914 10.6037 13.1858 10.5747C13.1914 10.5459 13.1943 10.516 13.1943 10.4855V2.28906C13.1943 1.82307 12.8166 1.44531 12.3506 1.44531H3.97559C3.02635 1.44531 2.25684 2.21483 2.25684 3.16406V11.9141C2.25684 12.8633 3.02635 13.6328 3.97559 13.6328H12.7256C12.9845 13.6328 13.1943 13.4229 13.1943 13.1641C13.1943 12.9052 12.9845 12.6953 12.7256 12.6953H3.97559C3.54411 12.6953 3.19434 12.3456 3.19434 11.9141ZM5.85059 3.94531C5.5917 3.94531 5.38184 4.15518 5.38184 4.41406C5.38184 4.67294 5.5917 4.88281 5.85059 4.88281H9.60059C9.85946 4.88281 10.0693 4.67294 10.0693 4.41406C10.0693 4.15518 9.85946 3.94531 9.60059 3.94531H5.85059Z" fill="white"/>
</svg>
