<svg width="16" height="16" viewBox="0 0 16 16" fill="none" xmlns="http://www.w3.org/2000/svg">
<g clip-path="url(#clip0_2195_838)">
<path d="M4.44531 3.47656C4.10031 3.47656 3.82031 3.19656 3.82031 2.85156V0.664062C3.82031 0.319063 4.10031 0.0390625 4.44531 0.0390625C4.79031 0.0390625 5.07031 0.319063 5.07031 0.664062V2.85156C5.07031 3.19656 4.79031 3.47656 4.44531 3.47656Z" fill="white"/>
<path d="M7.41406 3.47656C7.06906 3.47656 6.78906 3.19656 6.78906 2.85156V0.664062C6.78906 0.319063 7.06906 0.0390625 7.41406 0.0390625C7.75906 0.0390625 8.03906 0.319063 8.03906 0.664062V2.85156C8.03906 3.19656 7.75906 3.47656 7.41406 3.47656Z" fill="white"/>
<path d="M10.3828 3.47656C10.0378 3.47656 9.75781 3.19656 9.75781 2.85156V0.664062C9.75781 0.319063 10.0378 0.0390625 10.3828 0.0390625C10.7278 0.0390625 11.0078 0.319063 11.0078 0.664062V2.85156C11.0078 3.19656 10.7278 3.47656 10.3828 3.47656Z" fill="white"/>
<path d="M11.6328 1.44531H3.19531C2.24719 1.44531 1.47656 2.21594 1.47656 3.16406V13.3203C1.47656 14.2684 2.24719 15.0391 3.19531 15.0391H11.6328C12.5809 15.0391 13.3516 14.2684 13.3516 13.3203V3.16406C13.3516 2.21594 12.5809 1.44531 11.6328 1.44531ZM4.60156 5.03906H7.72656C8.07156 5.03906 8.35156 5.31906 8.35156 5.66406C8.35156 6.00906 8.07156 6.28906 7.72656 6.28906H4.60156C4.25656 6.28906 3.97656 6.00906 3.97656 5.66406C3.97656 5.31906 4.25656 5.03906 4.60156 5.03906ZM10.8516 11.2891H4.60156C4.25656 11.2891 3.97656 11.0091 3.97656 10.6641C3.97656 10.3191 4.25656 10.0391 4.60156 10.0391H10.8516C11.1966 10.0391 11.4766 10.3191 11.4766 10.6641C11.4766 11.0091 11.1966 11.2891 10.8516 11.2891ZM10.8516 8.78906H4.60156C4.25656 8.78906 3.97656 8.50906 3.97656 8.16406C3.97656 7.81906 4.25656 7.53906 4.60156 7.53906H10.8516C11.1966 7.53906 11.4766 7.81906 11.4766 8.16406C11.4766 8.50906 11.1966 8.78906 10.8516 8.78906Z" fill="white"/>
</g>
<defs>
<clipPath id="clip0_2195_838">
<rect width="15" height="15" fill="white" transform="translate(0.226562 0.0390625)"/>
</clipPath>
</defs>
</svg>
