<svg width="16" height="16" viewBox="0 0 16 16" fill="none" xmlns="http://www.w3.org/2000/svg">
<g clip-path="url(#clip0_2195_742)">
<path d="M15.5842 12.8691L12.1356 9.42024C12.7216 8.4874 13.0616 7.38484 13.0616 6.20159C13.0616 2.85402 10.3479 0.140625 7.00042 0.140625C3.65297 0.140625 0.939453 2.85402 0.939453 6.20159C0.939453 9.5493 3.65285 12.2624 7.00042 12.2624C8.28811 12.2624 9.48083 11.8599 10.4623 11.1758L13.8698 14.5836C14.1066 14.8201 14.417 14.9379 14.727 14.9379C15.0374 14.9379 15.3474 14.8201 15.5846 14.5836C16.0578 14.1099 16.0578 13.3426 15.5842 12.8691ZM7.00042 10.2988C4.73785 10.2988 2.9035 8.46454 2.9035 6.20185C2.9035 3.93915 4.73785 2.1048 7.00042 2.1048C9.26312 2.1048 11.0973 3.93915 11.0973 6.20185C11.0973 8.46454 9.26312 10.2988 7.00042 10.2988Z" fill="white"/>
</g>
<defs>
<clipPath id="clip0_2195_742">
<rect width="15" height="15" fill="white" transform="translate(0.9375 0.0390625)"/>
</clipPath>
</defs>
</svg>
