<svg width="16" height="16" viewBox="0 0 16 16" fill="none" xmlns="http://www.w3.org/2000/svg">
<g clip-path="url(#clip0_2195_864)">
<path fill-rule="evenodd" clip-rule="evenodd" d="M13.9961 9.1872C13.5252 8.91591 13.2327 8.41051 13.2327 7.86764C13.2327 7.32503 13.5252 6.81963 13.9947 6.5486C14.4767 6.27154 14.6771 5.69586 14.4712 5.17988C14.213 4.52811 13.8616 3.91935 13.4291 3.37027C13.0845 2.9331 12.4858 2.81861 12.0039 3.09746C11.5344 3.37027 10.9495 3.37109 10.4786 3.09951C10.009 2.82793 9.71793 2.32171 9.7193 1.77787C9.7193 1.22152 9.32113 0.759804 8.77058 0.680175C8.07859 0.579951 7.37564 0.580507 6.6809 0.682226C6.1317 0.762412 5.73355 1.22387 5.7349 1.7791C5.7349 2.32227 5.44381 2.82819 4.97426 3.09951C4.50332 3.3708 3.91981 3.37024 3.44889 3.09772C2.96699 2.81888 2.36837 2.93393 2.02375 3.37109C1.80956 3.6435 1.61183 3.93471 1.43749 4.23717C1.26311 4.5391 1.11071 4.85557 0.981657 5.17725C0.774323 5.69404 0.974802 6.27055 1.45671 6.54831C1.92765 6.81934 2.22009 7.325 2.22009 7.86761C2.22009 8.41021 1.92765 8.91547 1.45808 9.1869C0.976179 9.46399 0.77573 10.0394 0.981657 10.5552C1.23979 11.2074 1.59127 11.8162 2.02375 12.3649C2.36837 12.8021 2.96699 12.9166 3.44889 12.6378C3.91846 12.3649 4.50335 12.3644 4.97426 12.6357C5.44381 12.9073 5.7349 13.4135 5.7349 13.9573C5.73352 14.5135 6.13304 14.9753 6.68224 15.0551C7.02686 15.1049 7.37286 15.1297 7.71883 15.1297C8.07033 15.1297 8.4218 15.1042 8.7719 15.053C9.3211 14.9727 9.71924 14.5116 9.71924 13.9564C9.71787 13.4129 10.0089 12.907 10.4785 12.6357C10.9494 12.3644 11.533 12.365 12.0039 12.6375C12.4858 12.9163 13.0844 12.8016 13.429 12.3641C13.6432 12.0916 13.8409 11.8004 14.0153 11.4983C14.1883 11.1964 14.3434 10.8799 14.4711 10.558C14.6785 10.0412 14.4781 9.46452 13.9961 9.1872ZM9.59435 8.94638C9.30739 9.44533 8.84195 9.80243 8.28455 9.95155C7.72849 10.1006 7.14634 10.0242 6.64794 9.73584C5.61821 9.14105 5.26398 7.8193 5.85847 6.78887C6.25665 6.09769 6.98432 5.7108 7.72984 5.7108C8.09643 5.7108 8.46578 5.80361 8.80489 5.9994C9.83462 6.59404 10.1888 7.91621 9.59435 8.94638Z" fill="white"/>
</g>
<defs>
<clipPath id="clip0_2195_864">
<rect width="15" height="15" fill="white" transform="translate(0.226562 0.367188)"/>
</clipPath>
</defs>
</svg>
