<svg width="16" height="16" viewBox="0 0 16 16" fill="none" xmlns="http://www.w3.org/2000/svg">
<g clip-path="url(#clip0_2360_54)">
<path d="M6.50781 13.1777C7.28226 13.7423 7.82619 14.0696 7.85626 14.0877C7.99656 14.1718 8.17183 14.1718 8.31213 14.0877C8.36472 14.0561 9.99229 13.0766 11.6743 11.5352H8.44968C7.52455 12.2435 6.82436 12.8798 6.50781 13.1777Z" fill="white"/>
<path d="M13.9455 2.09053C11.7884 0.463465 9.21726 1.81581 8.08324 3.33277C7.48749 2.59719 6.21444 1.35336 4.41789 1.35336C1.40406 1.44827 0.0684201 4.32563 1.135 6.96767C2.78869 5.57221 4.97451 4.83453 7.64393 4.77108C9.83308 3.39094 12.1325 2.3768 13.9455 2.09053Z" fill="white"/>
<path d="M6.15991 5.77734C4.21707 6.04924 2.61974 6.76699 1.39666 7.92214C1.25462 8.0563 1.21723 8.2676 1.30461 8.44234C1.52575 8.88463 1.88065 9.31869 2.22323 9.67761C2.96722 8.46619 4.36684 7.0835 6.15991 5.77734Z" fill="white"/>
<path d="M12.7462 10.6507C12.8468 10.6507 12.9444 10.6165 13.0229 10.5536C13.6689 10.0368 14.1278 9.2852 14.436 8.62109C13.0931 8.76706 11.4693 9.45993 9.68555 10.6507H12.7462Z" fill="white"/>
<path d="M15.2681 3.02036C15.185 2.93728 15.0723 2.89062 14.9548 2.89062C11.3278 2.89062 4.31553 7.4223 2.77724 10.4988C2.69198 10.6694 2.72541 10.8754 2.86022 11.0102C3.86896 12.019 5.10255 12.7638 5.15458 12.795C5.37046 12.9245 5.59091 12.8332 5.69568 12.7285C5.74597 12.6782 10.7734 7.70381 14.9548 7.70381C15.1226 7.70381 15.276 7.60899 15.3511 7.45889C16.0279 6.1808 16.1172 4.01266 15.2681 3.02036Z" fill="white"/>
</g>
<defs>
<clipPath id="clip0_2360_54">
<rect width="15.11" height="15.11" fill="white" transform="translate(0.771484 0.195312)"/>
</clipPath>
</defs>
</svg>
