<svg width="16" height="16" viewBox="0 0 16 16" fill="none" xmlns="http://www.w3.org/2000/svg">
<path d="M8.28802 2.13281C7.04283 2.13281 5.82559 2.50206 4.79025 3.19385C3.7549 3.88565 2.94795 4.86892 2.47143 6.01933C1.99492 7.16975 1.87024 8.43563 2.11316 9.6569C2.35609 10.8782 2.95571 12 3.8362 12.8805C4.71669 13.761 5.8385 14.3606 7.05977 14.6035C8.28104 14.8464 9.54692 14.7218 10.6973 14.2452C11.8477 13.7687 12.831 12.9618 13.5228 11.9264C14.2146 10.8911 14.5839 9.67384 14.5839 8.42865C14.582 6.75945 13.9181 5.15914 12.7378 3.97884C11.5575 2.79854 9.95722 2.13465 8.28802 2.13281ZM3.25136 8.42865C3.25286 7.0933 3.78399 5.81307 4.72822 4.86884C5.67245 3.92461 6.95268 3.39348 8.28802 3.39198C8.66093 3.39239 9.03261 3.43462 9.39609 3.5179C8.65724 4.1055 8.06051 4.85225 7.65035 5.70251C7.24018 6.55277 7.02717 7.48462 7.02717 8.42865C7.02717 9.37267 7.24018 10.3045 7.65035 11.1548C8.06051 12.005 8.65724 12.7518 9.39609 13.3394C9.03261 13.4227 8.66093 13.4649 8.28802 13.4653C6.95268 13.4638 5.67245 12.9327 4.72822 11.9884C3.78399 11.0442 3.25286 9.76399 3.25136 8.42865Z" fill="white"/>
</svg>
