<svg width="227" height="258" viewBox="0 0 227 258" fill="none" xmlns="http://www.w3.org/2000/svg">
<path opacity="0.05" d="M4.50586 0.824219H199.382L226.438 24.4227V222.756H4.50586V0.824219Z" fill="url(#paint0_linear_1_3)"/>
<g style="mix-blend-mode:overlay" filter="url(#filter0_f_1_3)">
<path d="M12.5215 33.8828H204.689L166.794 198.008L109.854 205.267L50.4971 198.008L12.5215 33.8828Z" fill="url(#paint1_linear_1_3)"/>
</g>
<g style="mix-blend-mode:overlay" filter="url(#filter1_f_1_3)">
<path d="M12.5215 33.8828H204.689L166.794 198.008L109.854 205.267L50.4971 198.008L12.5215 33.8828Z" fill="url(#paint2_linear_1_3)"/>
</g>
<g opacity="0.7" filter="url(#filter2_f_1_3)">
<path d="M61.9051 136.989C61.9051 136.989 60.5151 109.959 53.7051 103.539" stroke="#10F3FE" stroke-width="4" stroke-miterlimit="10" stroke-linecap="round"/>
<path d="M66.2852 122.984C66.2852 122.984 95.3852 136.444 91.0152 176.614" stroke="#10F3FE" stroke-width="4" stroke-miterlimit="10" stroke-linecap="round"/>
<path d="M95.6055 56.6562V85.0062" stroke="#10F3FE" stroke-width="4" stroke-miterlimit="10" stroke-linecap="round"/>
<path d="M68.4453 73.8555L72.4453 80.3255L73.2153 105.045C73.2153 105.045 79.1553 114.075 97.5453 123.655C97.5453 120.685 97.5453 114.405 97.5453 114.405C97.5453 114.405 90.7153 105.815 73.5453 100.975" stroke="#10F3FE" stroke-width="4" stroke-miterlimit="10" stroke-linecap="round"/>
<path d="M73.5448 100.969C90.7148 105.809 97.5448 114.399 97.5448 114.399C97.5448 114.399 97.5448 120.679 97.5448 123.649C79.1648 114.069 73.2148 105.039 73.2148 105.039L73.5448 100.969Z" fill="#10F3FE"/>
<path d="M154.474 106.107C162.594 56.2669 108.604 54.5469 108.604 54.5469C108.604 54.5469 54.6143 56.2669 62.7343 106.107" stroke="#10F3FE" stroke-width="4" stroke-miterlimit="10" stroke-linecap="round"/>
<path d="M155.305 97.7773L162.075 101.807C163.135 102.437 163.755 103.617 163.685 104.847L162.145 130.817C162.085 131.847 161.545 132.787 160.685 133.367L151.045 139.847C150.335 140.327 149.835 141.067 149.655 141.907L147.225 153.337C147.055 154.127 146.605 154.827 145.965 155.307C142.855 157.627 133.145 165.387 126.195 176.617C125.595 177.577 124.535 178.147 123.405 178.147H108.605H93.8049C92.6749 178.147 91.6149 177.577 91.0149 176.617C84.0549 165.387 74.3549 157.627 71.2449 155.307C70.5949 154.827 70.1449 154.127 69.9849 153.337L67.5549 141.907C67.3749 141.067 66.8749 140.327 66.1649 139.847L56.5249 133.367C55.6649 132.787 55.1249 131.847 55.0649 130.817L53.5249 104.847C53.4549 103.617 54.0749 102.437 55.1349 101.807L61.9049 97.7773" stroke="#10F3FE" stroke-width="4" stroke-miterlimit="10" stroke-linecap="round"/>
<path d="M155.305 136.989C155.305 136.989 156.695 109.959 163.505 103.539" stroke="#10F3FE" stroke-width="4" stroke-miterlimit="10" stroke-linecap="round"/>
<path d="M150.935 122.984C150.935 122.984 121.835 136.444 126.205 176.614" stroke="#10F3FE" stroke-width="4" stroke-miterlimit="10" stroke-linecap="round"/>
<path d="M135.274 62.0156L118.114 90.8856C117.644 91.6756 116.794 92.1556 115.874 92.1556H108.604H101.334C100.414 92.1556 99.5636 91.6756 99.0936 90.8856L81.9336 62.0156" stroke="#10F3FE" stroke-width="4" stroke-miterlimit="10" stroke-linecap="round"/>
<path d="M121.605 56.6562V85.0062" stroke="#10F3FE" stroke-width="4" stroke-miterlimit="10" stroke-linecap="round"/>
<path d="M148.776 73.8594L144.776 80.3294L144.006 105.049C144.006 105.049 138.066 114.079 119.676 123.659C119.676 120.689 119.676 114.409 119.676 114.409C119.676 114.409 126.506 105.819 143.676 100.979" stroke="#10F3FE" stroke-width="4" stroke-miterlimit="10" stroke-linecap="round"/>
<path d="M143.664 100.969C126.494 105.809 119.664 114.399 119.664 114.399C119.664 114.399 119.664 120.679 119.664 123.649C138.054 114.069 143.994 105.039 143.994 105.039L143.664 100.969Z" fill="#10F3FE"/>
<path d="M121.652 154.555C121.652 154.555 115.6 160.495 108.605 160.055C101.602 160.495 95.5586 154.555 95.5586 154.555" stroke="#10F3FE" stroke-width="4" stroke-miterlimit="10" stroke-linecap="round"/>
</g>
<path d="M61.9051 117.989C61.9051 117.989 60.5151 90.9591 53.7051 84.5391" stroke="#10F3FE" stroke-width="4" stroke-miterlimit="10" stroke-linecap="round"/>
<path d="M66.2852 112.07C66.2852 112.07 95.3852 123.502 91.0152 157.618" stroke="#10F3FE" stroke-width="4" stroke-miterlimit="10" stroke-linecap="round"/>
<path d="M95.6055 37.6562V58.0062" stroke="#10F3FE" stroke-width="4" stroke-miterlimit="10" stroke-linecap="round"/>
<path d="M68.4453 54.8555L72.4453 61.3255L73.2153 86.0455C73.2153 86.0455 79.1553 95.0755 97.5453 104.655C97.5453 101.685 97.5453 95.4055 97.5453 95.4055C97.5453 95.4055 90.7153 86.8155 73.5453 81.9755" stroke="#10F3FE" stroke-width="4" stroke-miterlimit="10" stroke-linecap="round"/>
<path d="M154.474 87.1069C162.594 37.2669 108.604 35.5469 108.604 35.5469C108.604 35.5469 54.6143 37.2669 62.7343 87.1069" stroke="#10F3FE" stroke-width="4" stroke-miterlimit="10" stroke-linecap="round"/>
<path d="M155.305 78.7773L162.075 82.8073C163.135 83.4373 163.755 84.6173 163.685 85.8473L162.145 111.817C162.085 112.847 161.545 113.787 160.685 114.367L151.045 120.847C150.335 121.327 149.835 122.067 149.655 122.907L147.225 134.337C147.055 135.127 146.605 135.827 145.965 136.307C142.855 138.627 133.145 146.387 126.195 157.617C125.595 158.577 124.535 159.147 123.405 159.147H108.605H93.8049C92.6749 159.147 91.6149 158.577 91.0149 157.617C84.0549 146.387 74.3549 138.627 71.2449 136.307C70.5949 135.827 70.1449 135.127 69.9849 134.337L67.5549 122.907C67.3749 122.067 66.8749 121.327 66.1649 120.847L56.5249 114.367C55.6649 113.787 55.1249 112.847 55.0649 111.817L53.5249 85.8473C53.4549 84.6173 54.0749 83.4373 55.1349 82.8073L61.9049 78.7773" stroke="#10F3FE" stroke-width="4" stroke-miterlimit="10" stroke-linecap="round"/>
<path d="M155.305 117.989C155.305 117.989 156.695 90.9591 163.505 84.5391" stroke="#10F3FE" stroke-width="4" stroke-miterlimit="10" stroke-linecap="round"/>
<path d="M150.935 112.07C150.935 112.07 121.835 123.502 126.205 157.618" stroke="#10F3FE" stroke-width="4" stroke-miterlimit="10" stroke-linecap="round"/>
<path d="M135.274 43.0156L118.114 61.8856C117.644 62.6756 116.794 63.1556 115.874 63.1556H108.604H101.334C100.414 63.1556 99.5636 62.6756 99.0936 61.8856L81.9336 43.0156" stroke="#10F3FE" stroke-width="4" stroke-miterlimit="10" stroke-linecap="round"/>
<path d="M121.605 37.6562V58.0062" stroke="#10F3FE" stroke-width="4" stroke-miterlimit="10" stroke-linecap="round"/>
<path d="M148.776 54.8594L144.776 61.3294L144.006 86.0494C144.006 86.0494 138.066 95.0794 119.676 104.659C119.676 101.689 119.676 95.4094 119.676 95.4094C119.676 95.4094 126.506 86.8194 143.676 81.9794" stroke="#10F3FE" stroke-width="4" stroke-miterlimit="10" stroke-linecap="round"/>
<path d="M121.652 135.555C121.652 135.555 115.6 141.495 108.605 141.055C101.602 141.495 95.5586 135.555 95.5586 135.555" stroke="#10F3FE" stroke-width="4" stroke-miterlimit="10" stroke-linecap="round"/>
<g filter="url(#filter3_dddd_1_3)">
<ellipse cx="108.605" cy="195.91" rx="56.084" ry="8.78516" stroke="#10F3FE" stroke-width="5" shape-rendering="crispEdges"/>
</g>
<defs>
<filter id="filter0_f_1_3" x="2.52148" y="23.8828" width="212.168" height="191.383" filterUnits="userSpaceOnUse" color-interpolation-filters="sRGB">
<feFlood flood-opacity="0" result="BackgroundImageFix"/>
<feBlend mode="normal" in="SourceGraphic" in2="BackgroundImageFix" result="shape"/>
<feGaussianBlur stdDeviation="0" result="effect1_foregroundBlur_1_3"/>
</filter>
<filter id="filter1_f_1_3" x="2.52148" y="23.8828" width="212.168" height="191.383" filterUnits="userSpaceOnUse" color-interpolation-filters="sRGB">
<feFlood flood-opacity="0" result="BackgroundImageFix"/>
<feBlend mode="normal" in="SourceGraphic" in2="BackgroundImageFix" result="shape"/>
<feGaussianBlur stdDeviation="0" result="effect1_foregroundBlur_1_3"/>
</filter>
<filter id="filter2_f_1_3" x="11.5195" y="12.5469" width="194.17" height="207.602" filterUnits="userSpaceOnUse" color-interpolation-filters="sRGB">
<feFlood flood-opacity="0" result="BackgroundImageFix"/>
<feBlend mode="normal" in="SourceGraphic" in2="BackgroundImageFix" result="shape"/>
<feGaussianBlur stdDeviation="20" result="effect1_foregroundBlur_1_3"/>
</filter>
<filter id="filter3_dddd_1_3" x="0.0214844" y="134.625" width="217.168" height="122.57" filterUnits="userSpaceOnUse" color-interpolation-filters="sRGB">
<feFlood flood-opacity="0" result="BackgroundImageFix"/>
<feColorMatrix in="SourceAlpha" type="matrix" values="0 0 0 0 0 0 0 0 0 0 0 0 0 0 0 0 0 0 127 0" result="hardAlpha"/>
<feOffset/>
<feGaussianBlur stdDeviation="25"/>
<feComposite in2="hardAlpha" operator="out"/>
<feColorMatrix type="matrix" values="0 0 0 0 0.0627451 0 0 0 0 0.952941 0 0 0 0 0.996078 0 0 0 1 0"/>
<feBlend mode="normal" in2="BackgroundImageFix" result="effect1_dropShadow_1_3"/>
<feColorMatrix in="SourceAlpha" type="matrix" values="0 0 0 0 0 0 0 0 0 0 0 0 0 0 0 0 0 0 127 0" result="hardAlpha"/>
<feOffset/>
<feGaussianBlur stdDeviation="15"/>
<feComposite in2="hardAlpha" operator="out"/>
<feColorMatrix type="matrix" values="0 0 0 0 0.0627451 0 0 0 0 0.952941 0 0 0 0 0.996078 0 0 0 1 0"/>
<feBlend mode="normal" in2="effect1_dropShadow_1_3" result="effect2_dropShadow_1_3"/>
<feColorMatrix in="SourceAlpha" type="matrix" values="0 0 0 0 0 0 0 0 0 0 0 0 0 0 0 0 0 0 127 0" result="hardAlpha"/>
<feOffset/>
<feGaussianBlur stdDeviation="10"/>
<feComposite in2="hardAlpha" operator="out"/>
<feColorMatrix type="matrix" values="0 0 0 0 0.0627451 0 0 0 0 0.952941 0 0 0 0 0.996078 0 0 0 1 0"/>
<feBlend mode="normal" in2="effect2_dropShadow_1_3" result="effect3_dropShadow_1_3"/>
<feColorMatrix in="SourceAlpha" type="matrix" values="0 0 0 0 0 0 0 0 0 0 0 0 0 0 0 0 0 0 127 0" result="hardAlpha"/>
<feOffset/>
<feGaussianBlur stdDeviation="2.5"/>
<feComposite in2="hardAlpha" operator="out"/>
<feColorMatrix type="matrix" values="0 0 0 0 0.0627451 0 0 0 0 0.952941 0 0 0 0 0.996078 0 0 0 1 0"/>
<feBlend mode="normal" in2="effect3_dropShadow_1_3" result="effect4_dropShadow_1_3"/>
<feBlend mode="normal" in="SourceGraphic" in2="effect4_dropShadow_1_3" result="shape"/>
</filter>
<linearGradient id="paint0_linear_1_3" x1="115.472" y1="0.824219" x2="115.472" y2="222.756" gradientUnits="userSpaceOnUse">
<stop stop-color="white"/>
<stop offset="1" stop-color="white" stop-opacity="0"/>
</linearGradient>
<linearGradient id="paint1_linear_1_3" x1="108.605" y1="204.697" x2="108.605" y2="33.8828" gradientUnits="userSpaceOnUse">
<stop stop-color="#11F3FD" stop-opacity="0.5"/>
<stop offset="1" stop-color="#11F3FD" stop-opacity="0"/>
</linearGradient>
<linearGradient id="paint2_linear_1_3" x1="108.605" y1="204.697" x2="108.605" y2="33.8828" gradientUnits="userSpaceOnUse">
<stop stop-color="#11F3FD" stop-opacity="0.5"/>
<stop offset="1" stop-color="#11F3FD" stop-opacity="0"/>
</linearGradient>
</defs>
</svg>